G04 EAGLE Gerber X2 export*
%TF.Part,Single*%
%TF.FileFunction,Copper,L2,Bot,Mixed*%
%TF.FilePolarity,Positive*%
%TF.GenerationSoftware,Autodesk,EAGLE,9.1.2*%
%TF.CreationDate,2018-08-12T18:09:38Z*%
G75*
%MOMM*%
%FSLAX34Y34*%
%LPD*%
%AMOC8*
5,1,8,0,0,1.08239X$1,22.5*%
G01*
%ADD10C,2.540000*%
%ADD11C,2.571600*%
%ADD12C,1.320800*%
%ADD13C,2.250000*%
%ADD14R,2.500000X1.200000*%
%ADD15C,5.334000*%
%ADD16C,1.473200*%
%ADD17C,0.152400*%
%ADD18C,0.756400*%


D10*
X326390Y716280D03*
X389890Y741680D03*
D11*
X313690Y690880D03*
X415290Y690880D03*
D10*
X516890Y716280D03*
X580390Y741680D03*
D11*
X504190Y690880D03*
X605790Y690880D03*
D10*
X707390Y716280D03*
X770890Y741680D03*
D11*
X694690Y690880D03*
X796290Y690880D03*
D10*
X897890Y716280D03*
X961390Y741680D03*
D11*
X885190Y690880D03*
X986790Y690880D03*
D10*
X1088390Y716280D03*
X1151890Y741680D03*
D11*
X1075690Y690880D03*
X1177290Y690880D03*
D10*
X1278890Y716280D03*
X1342390Y741680D03*
D11*
X1266190Y690880D03*
X1367790Y690880D03*
D10*
X1469390Y716280D03*
X1532890Y741680D03*
D11*
X1456690Y690880D03*
X1558290Y690880D03*
D10*
X1659890Y716280D03*
X1723390Y741680D03*
D11*
X1647190Y690880D03*
X1748790Y690880D03*
D10*
X1850390Y716280D03*
X1913890Y741680D03*
D11*
X1837690Y690880D03*
X1939290Y690880D03*
D10*
X2040890Y716280D03*
X2104390Y741680D03*
D11*
X2028190Y690880D03*
X2129790Y690880D03*
D10*
X2231390Y716280D03*
X2294890Y741680D03*
D11*
X2218690Y690880D03*
X2320290Y690880D03*
D10*
X2421890Y716280D03*
X2485390Y741680D03*
D11*
X2409190Y690880D03*
X2510790Y690880D03*
D10*
X2659380Y716280D03*
X2722880Y741680D03*
D11*
X2646680Y690880D03*
X2748280Y690880D03*
D12*
X453390Y722376D02*
X453390Y735584D01*
X453390Y659384D02*
X453390Y646176D01*
X643890Y722376D02*
X643890Y735584D01*
X643890Y659384D02*
X643890Y646176D01*
X834390Y722376D02*
X834390Y735584D01*
X834390Y659384D02*
X834390Y646176D01*
X1024890Y722376D02*
X1024890Y735584D01*
X1024890Y659384D02*
X1024890Y646176D01*
X1215390Y722376D02*
X1215390Y735584D01*
X1215390Y659384D02*
X1215390Y646176D01*
X1405890Y722376D02*
X1405890Y735584D01*
X1405890Y659384D02*
X1405890Y646176D01*
X1596390Y722376D02*
X1596390Y735584D01*
X1596390Y659384D02*
X1596390Y646176D01*
X1786890Y722376D02*
X1786890Y735584D01*
X1786890Y659384D02*
X1786890Y646176D01*
X1977390Y722376D02*
X1977390Y735584D01*
X1977390Y659384D02*
X1977390Y646176D01*
X2167890Y722376D02*
X2167890Y735584D01*
X2167890Y659384D02*
X2167890Y646176D01*
X2358390Y722376D02*
X2358390Y735584D01*
X2358390Y659384D02*
X2358390Y646176D01*
X2548890Y722376D02*
X2548890Y735584D01*
X2548890Y659384D02*
X2548890Y646176D01*
X2788920Y722376D02*
X2788920Y735584D01*
X2788920Y659384D02*
X2788920Y646176D01*
D10*
X372110Y525780D03*
X435610Y551180D03*
D11*
X359410Y500380D03*
X461010Y500380D03*
D10*
X562610Y525780D03*
X626110Y551180D03*
D11*
X549910Y500380D03*
X651510Y500380D03*
D10*
X753110Y525780D03*
X816610Y551180D03*
D11*
X740410Y500380D03*
X842010Y500380D03*
D10*
X943610Y525780D03*
X1007110Y551180D03*
D11*
X930910Y500380D03*
X1032510Y500380D03*
D10*
X1134110Y525780D03*
X1197610Y551180D03*
D11*
X1121410Y500380D03*
X1223010Y500380D03*
D10*
X1324610Y525780D03*
X1388110Y551180D03*
D11*
X1311910Y500380D03*
X1413510Y500380D03*
D10*
X1515110Y525780D03*
X1578610Y551180D03*
D11*
X1502410Y500380D03*
X1604010Y500380D03*
D10*
X1705610Y525780D03*
X1769110Y551180D03*
D11*
X1692910Y500380D03*
X1794510Y500380D03*
D10*
X1896110Y525780D03*
X1959610Y551180D03*
D11*
X1883410Y500380D03*
X1985010Y500380D03*
D10*
X2086610Y525780D03*
X2150110Y551180D03*
D11*
X2073910Y500380D03*
X2175510Y500380D03*
D10*
X2277110Y525780D03*
X2340610Y551180D03*
D11*
X2264410Y500380D03*
X2366010Y500380D03*
D12*
X499110Y531876D02*
X499110Y545084D01*
X499110Y468884D02*
X499110Y455676D01*
X689610Y531876D02*
X689610Y545084D01*
X689610Y468884D02*
X689610Y455676D01*
X880110Y531876D02*
X880110Y545084D01*
X880110Y468884D02*
X880110Y455676D01*
X1070610Y531876D02*
X1070610Y545084D01*
X1070610Y468884D02*
X1070610Y455676D01*
X1261110Y531876D02*
X1261110Y545084D01*
X1261110Y468884D02*
X1261110Y455676D01*
X1451610Y531876D02*
X1451610Y545084D01*
X1451610Y468884D02*
X1451610Y455676D01*
X1642110Y531876D02*
X1642110Y545084D01*
X1642110Y468884D02*
X1642110Y455676D01*
X1832610Y531876D02*
X1832610Y545084D01*
X1832610Y468884D02*
X1832610Y455676D01*
X2023110Y531876D02*
X2023110Y545084D01*
X2023110Y468884D02*
X2023110Y455676D01*
X2213610Y531876D02*
X2213610Y545084D01*
X2213610Y468884D02*
X2213610Y455676D01*
X2404110Y531876D02*
X2404110Y545084D01*
X2404110Y468884D02*
X2404110Y455676D01*
D10*
X467360Y335280D03*
X530860Y360680D03*
D11*
X454660Y309880D03*
X556260Y309880D03*
D10*
X657860Y335280D03*
X721360Y360680D03*
D11*
X645160Y309880D03*
X746760Y309880D03*
D10*
X848360Y335280D03*
X911860Y360680D03*
D11*
X835660Y309880D03*
X937260Y309880D03*
D10*
X1038860Y335280D03*
X1102360Y360680D03*
D11*
X1026160Y309880D03*
X1127760Y309880D03*
D10*
X1229360Y335280D03*
X1292860Y360680D03*
D11*
X1216660Y309880D03*
X1318260Y309880D03*
D10*
X1419860Y335280D03*
X1483360Y360680D03*
D11*
X1407160Y309880D03*
X1508760Y309880D03*
D10*
X1610360Y335280D03*
X1673860Y360680D03*
D11*
X1597660Y309880D03*
X1699260Y309880D03*
D10*
X1800860Y335280D03*
X1864360Y360680D03*
D11*
X1788160Y309880D03*
X1889760Y309880D03*
D10*
X1991360Y335280D03*
X2054860Y360680D03*
D11*
X1978660Y309880D03*
X2080260Y309880D03*
D10*
X2181860Y335280D03*
X2245360Y360680D03*
D11*
X2169160Y309880D03*
X2270760Y309880D03*
D12*
X594360Y341376D02*
X594360Y354584D01*
X594360Y278384D02*
X594360Y265176D01*
X784860Y341376D02*
X784860Y354584D01*
X784860Y278384D02*
X784860Y265176D01*
X975360Y341376D02*
X975360Y354584D01*
X975360Y278384D02*
X975360Y265176D01*
X1165860Y341376D02*
X1165860Y354584D01*
X1165860Y278384D02*
X1165860Y265176D01*
X1356360Y341376D02*
X1356360Y354584D01*
X1356360Y278384D02*
X1356360Y265176D01*
X1546860Y341376D02*
X1546860Y354584D01*
X1546860Y278384D02*
X1546860Y265176D01*
X1737360Y341376D02*
X1737360Y354584D01*
X1737360Y278384D02*
X1737360Y265176D01*
X1927860Y341376D02*
X1927860Y354584D01*
X1927860Y278384D02*
X1927860Y265176D01*
X2118360Y341376D02*
X2118360Y354584D01*
X2118360Y278384D02*
X2118360Y265176D01*
X2308860Y341376D02*
X2308860Y354584D01*
X2308860Y278384D02*
X2308860Y265176D01*
D10*
X88900Y716280D03*
X152400Y741680D03*
D11*
X76200Y690880D03*
X177800Y690880D03*
D10*
X110490Y525780D03*
X173990Y551180D03*
D11*
X97790Y500380D03*
X199390Y500380D03*
D12*
X214630Y722376D02*
X214630Y735584D01*
X214630Y659384D02*
X214630Y646176D01*
X237490Y541274D02*
X237490Y528066D01*
X237490Y465074D02*
X237490Y451866D01*
X283210Y350774D02*
X283210Y337566D01*
X283210Y274574D02*
X283210Y261366D01*
X2658110Y343916D02*
X2658110Y357124D01*
X2658110Y280924D02*
X2658110Y267716D01*
X2707640Y529336D02*
X2707640Y542544D01*
X2707640Y466344D02*
X2707640Y453136D01*
D10*
X236220Y906780D03*
X299720Y932180D03*
D11*
X223520Y881380D03*
X325120Y881380D03*
D10*
X426720Y906780D03*
X490220Y932180D03*
D11*
X414020Y881380D03*
X515620Y881380D03*
D10*
X617220Y906780D03*
X680720Y932180D03*
D11*
X604520Y881380D03*
X706120Y881380D03*
D10*
X807720Y906780D03*
X871220Y932180D03*
D11*
X795020Y881380D03*
X896620Y881380D03*
D10*
X998220Y906780D03*
X1061720Y932180D03*
D11*
X985520Y881380D03*
X1087120Y881380D03*
D10*
X1188720Y906780D03*
X1252220Y932180D03*
D11*
X1176020Y881380D03*
X1277620Y881380D03*
D10*
X1379220Y906780D03*
X1442720Y932180D03*
D11*
X1366520Y881380D03*
X1468120Y881380D03*
D10*
X1569720Y906780D03*
X1633220Y932180D03*
D11*
X1557020Y881380D03*
X1658620Y881380D03*
D10*
X1760220Y906780D03*
X1823720Y932180D03*
D11*
X1747520Y881380D03*
X1849120Y881380D03*
D10*
X1950720Y906780D03*
X2014220Y932180D03*
D11*
X1938020Y881380D03*
X2039620Y881380D03*
D10*
X2141220Y906780D03*
X2204720Y932180D03*
D11*
X2128520Y881380D03*
X2230120Y881380D03*
D10*
X2331720Y906780D03*
X2395220Y932180D03*
D11*
X2319020Y881380D03*
X2420620Y881380D03*
D12*
X363220Y912876D02*
X363220Y926084D01*
X363220Y849884D02*
X363220Y836676D01*
X553720Y912876D02*
X553720Y926084D01*
X553720Y849884D02*
X553720Y836676D01*
X744220Y912876D02*
X744220Y926084D01*
X744220Y849884D02*
X744220Y836676D01*
X934720Y912876D02*
X934720Y926084D01*
X934720Y849884D02*
X934720Y836676D01*
X1125220Y912876D02*
X1125220Y926084D01*
X1125220Y849884D02*
X1125220Y836676D01*
X1315720Y912876D02*
X1315720Y926084D01*
X1315720Y849884D02*
X1315720Y836676D01*
X1506220Y912876D02*
X1506220Y926084D01*
X1506220Y849884D02*
X1506220Y836676D01*
X1696720Y912876D02*
X1696720Y926084D01*
X1696720Y849884D02*
X1696720Y836676D01*
X1887220Y912876D02*
X1887220Y926084D01*
X1887220Y849884D02*
X1887220Y836676D01*
X2077720Y912876D02*
X2077720Y926084D01*
X2077720Y849884D02*
X2077720Y836676D01*
X2268220Y912876D02*
X2268220Y926084D01*
X2268220Y849884D02*
X2268220Y836676D01*
X2458720Y912876D02*
X2458720Y926084D01*
X2458720Y849884D02*
X2458720Y836676D01*
X2745740Y912876D02*
X2745740Y926084D01*
X2745740Y849884D02*
X2745740Y836676D01*
D10*
X45720Y906780D03*
X109220Y932180D03*
D11*
X33020Y881380D03*
X134620Y881380D03*
D12*
X172720Y912876D02*
X172720Y926084D01*
X172720Y849884D02*
X172720Y836676D01*
D10*
X66040Y144780D03*
X129540Y170180D03*
D11*
X53340Y119380D03*
X154940Y119380D03*
D10*
X304800Y144780D03*
X368300Y170180D03*
D11*
X292100Y119380D03*
X393700Y119380D03*
D10*
X543560Y144780D03*
X607060Y170180D03*
D11*
X530860Y119380D03*
X632460Y119380D03*
D10*
X1973580Y146050D03*
X2037080Y171450D03*
D11*
X1960880Y120650D03*
X2062480Y120650D03*
D10*
X2212340Y146050D03*
X2275840Y171450D03*
D11*
X2199640Y120650D03*
X2301240Y120650D03*
D12*
X194310Y149606D02*
X194310Y162814D01*
X194310Y86614D02*
X194310Y73406D01*
X431800Y149606D02*
X431800Y162814D01*
X431800Y86614D02*
X431800Y73406D01*
X670560Y150876D02*
X670560Y164084D01*
X670560Y87884D02*
X670560Y74676D01*
X1385570Y154686D02*
X1385570Y167894D01*
X1385570Y91694D02*
X1385570Y78486D01*
X2100580Y150876D02*
X2100580Y164084D01*
X2100580Y87884D02*
X2100580Y74676D01*
X2339340Y153416D02*
X2339340Y166624D01*
X2339340Y90424D02*
X2339340Y77216D01*
D10*
X426720Y1097280D03*
X490220Y1122680D03*
D11*
X414020Y1071880D03*
X515620Y1071880D03*
D10*
X617220Y1097280D03*
X680720Y1122680D03*
D11*
X604520Y1071880D03*
X706120Y1071880D03*
D10*
X807720Y1097280D03*
X871220Y1122680D03*
D11*
X795020Y1071880D03*
X896620Y1071880D03*
D10*
X998220Y1097280D03*
X1061720Y1122680D03*
D11*
X985520Y1071880D03*
X1087120Y1071880D03*
D10*
X1188720Y1097280D03*
X1252220Y1122680D03*
D11*
X1176020Y1071880D03*
X1277620Y1071880D03*
D10*
X1379220Y1097280D03*
X1442720Y1122680D03*
D11*
X1366520Y1071880D03*
X1468120Y1071880D03*
D10*
X1569720Y1097280D03*
X1633220Y1122680D03*
D11*
X1557020Y1071880D03*
X1658620Y1071880D03*
D10*
X1760220Y1097280D03*
X1823720Y1122680D03*
D11*
X1747520Y1071880D03*
X1849120Y1071880D03*
D10*
X1950720Y1097280D03*
X2014220Y1122680D03*
D11*
X1938020Y1071880D03*
X2039620Y1071880D03*
D10*
X2141220Y1097280D03*
X2204720Y1122680D03*
D11*
X2128520Y1071880D03*
X2230120Y1071880D03*
D10*
X2331720Y1097280D03*
X2395220Y1122680D03*
D11*
X2319020Y1071880D03*
X2420620Y1071880D03*
D10*
X2522220Y1097280D03*
X2585720Y1122680D03*
D11*
X2509520Y1071880D03*
X2611120Y1071880D03*
D12*
X553720Y1103376D02*
X553720Y1116584D01*
X553720Y1040384D02*
X553720Y1027176D01*
X744220Y1103376D02*
X744220Y1116584D01*
X744220Y1040384D02*
X744220Y1027176D01*
X934720Y1103376D02*
X934720Y1116584D01*
X934720Y1040384D02*
X934720Y1027176D01*
X1125220Y1103376D02*
X1125220Y1116584D01*
X1125220Y1040384D02*
X1125220Y1027176D01*
X1315720Y1103376D02*
X1315720Y1116584D01*
X1315720Y1040384D02*
X1315720Y1027176D01*
X1506220Y1103376D02*
X1506220Y1116584D01*
X1506220Y1040384D02*
X1506220Y1027176D01*
X1696720Y1103376D02*
X1696720Y1116584D01*
X1696720Y1040384D02*
X1696720Y1027176D01*
X1887220Y1103376D02*
X1887220Y1116584D01*
X1887220Y1040384D02*
X1887220Y1027176D01*
X2077720Y1103376D02*
X2077720Y1116584D01*
X2077720Y1040384D02*
X2077720Y1027176D01*
X2268220Y1103376D02*
X2268220Y1116584D01*
X2268220Y1040384D02*
X2268220Y1027176D01*
X2458720Y1103376D02*
X2458720Y1116584D01*
X2458720Y1040384D02*
X2458720Y1027176D01*
X2649220Y1103376D02*
X2649220Y1116584D01*
X2649220Y1040384D02*
X2649220Y1027176D01*
X267970Y1103376D02*
X267970Y1116584D01*
X267970Y1040384D02*
X267970Y1027176D01*
D10*
X2451100Y146050D03*
X2514600Y171450D03*
D11*
X2438400Y120650D03*
X2540000Y120650D03*
D12*
X2579370Y150876D02*
X2579370Y164084D01*
X2579370Y87884D02*
X2579370Y74676D01*
D10*
X2689860Y146050D03*
X2753360Y171450D03*
D11*
X2677160Y120650D03*
X2778760Y120650D03*
D12*
X2818130Y152146D02*
X2818130Y165354D01*
X2818130Y89154D02*
X2818130Y75946D01*
D10*
X2712720Y1097280D03*
X2776220Y1122680D03*
D11*
X2700020Y1071880D03*
X2801620Y1071880D03*
D12*
X2839720Y1103376D02*
X2839720Y1116584D01*
X2839720Y1040384D02*
X2839720Y1027176D01*
D13*
X1258570Y144780D03*
X1322070Y170180D03*
X140970Y1097280D03*
X204470Y1122680D03*
X157480Y335280D03*
X220980Y360680D03*
X2531110Y335280D03*
X2594610Y360680D03*
X2581910Y525780D03*
X2645410Y551180D03*
X2617470Y906780D03*
X2680970Y932180D03*
D14*
X2978900Y761130D03*
X2913900Y772130D03*
X2978900Y721130D03*
X2978900Y691130D03*
X330720Y1044810D03*
X395720Y1033810D03*
X330720Y1084810D03*
X330720Y1114810D03*
D15*
X2616200Y50800D03*
X229870Y49530D03*
X1410970Y784860D03*
X52070Y787400D03*
D16*
X2867660Y1137920D03*
X2867660Y1112520D03*
X2867660Y1087120D03*
X2867660Y1061720D03*
X2867660Y1036320D03*
X2867660Y1010920D03*
X2867660Y985520D03*
X2867660Y960120D03*
X2867660Y934720D03*
X2867660Y909320D03*
X2867660Y883920D03*
X2867660Y858520D03*
X2867660Y833120D03*
X2867660Y807720D03*
X2893060Y807720D03*
X2918460Y807720D03*
X2943860Y807720D03*
X2969260Y807720D03*
X2994660Y807720D03*
X3020060Y807720D03*
X3020060Y833120D03*
X3020060Y858520D03*
X3020060Y883920D03*
X3020060Y909320D03*
X3020060Y934720D03*
X3020060Y960120D03*
X3020060Y985520D03*
X3020060Y1010920D03*
X3020060Y1036320D03*
X3020060Y1061720D03*
X3020060Y1087120D03*
X3020060Y1112520D03*
X3020060Y1137920D03*
X2994660Y1112520D03*
X2994660Y1061720D03*
X2994660Y1036320D03*
X2994660Y1010920D03*
X2943860Y833120D03*
X2969260Y833120D03*
X2943860Y858520D03*
X2943860Y883920D03*
X2943860Y909320D03*
X2943860Y934720D03*
X2969260Y858520D03*
X2969260Y883920D03*
X2969260Y909320D03*
X2969260Y934720D03*
X2969260Y960120D03*
X2969260Y985520D03*
X2943860Y960120D03*
X2943860Y985520D03*
D15*
X2819400Y889000D03*
D17*
X450850Y730250D02*
X441325Y739775D01*
X390525Y739775D01*
X450850Y730250D02*
X453390Y728980D01*
X390525Y739775D02*
X389890Y741680D01*
X631825Y739775D02*
X641350Y730250D01*
X631825Y739775D02*
X581025Y739775D01*
X641350Y730250D02*
X643890Y728980D01*
X581025Y739775D02*
X580390Y741680D01*
X822325Y739775D02*
X831850Y730250D01*
X822325Y739775D02*
X771525Y739775D01*
X831850Y730250D02*
X834390Y728980D01*
X771525Y739775D02*
X770890Y741680D01*
X1012825Y739775D02*
X1022350Y730250D01*
X1012825Y739775D02*
X962025Y739775D01*
X1022350Y730250D02*
X1024890Y728980D01*
X962025Y739775D02*
X961390Y741680D01*
X1203325Y739775D02*
X1212850Y730250D01*
X1203325Y739775D02*
X1152525Y739775D01*
X1212850Y730250D02*
X1215390Y728980D01*
X1152525Y739775D02*
X1151890Y741680D01*
X1393825Y739775D02*
X1403350Y730250D01*
X1393825Y739775D02*
X1343025Y739775D01*
X1403350Y730250D02*
X1405890Y728980D01*
X1343025Y739775D02*
X1342390Y741680D01*
X1584325Y739775D02*
X1593850Y730250D01*
X1584325Y739775D02*
X1533525Y739775D01*
X1593850Y730250D02*
X1596390Y728980D01*
X1533525Y739775D02*
X1532890Y741680D01*
X1774825Y739775D02*
X1784350Y730250D01*
X1774825Y739775D02*
X1724025Y739775D01*
X1784350Y730250D02*
X1786890Y728980D01*
X1724025Y739775D02*
X1723390Y741680D01*
X1965325Y739775D02*
X1974850Y730250D01*
X1965325Y739775D02*
X1914525Y739775D01*
X1974850Y730250D02*
X1977390Y728980D01*
X1914525Y739775D02*
X1913890Y741680D01*
X2155825Y739775D02*
X2165350Y730250D01*
X2155825Y739775D02*
X2105025Y739775D01*
X2165350Y730250D02*
X2167890Y728980D01*
X2105025Y739775D02*
X2104390Y741680D01*
X2346325Y739775D02*
X2355850Y730250D01*
X2346325Y739775D02*
X2295525Y739775D01*
X2355850Y730250D02*
X2358390Y728980D01*
X2295525Y739775D02*
X2294890Y741680D01*
X2536825Y739775D02*
X2546350Y730250D01*
X2536825Y739775D02*
X2486025Y739775D01*
X2546350Y730250D02*
X2548890Y728980D01*
X2486025Y739775D02*
X2485390Y741680D01*
X2778125Y739775D02*
X2787650Y730250D01*
X2778125Y739775D02*
X2724150Y739775D01*
X2787650Y730250D02*
X2788920Y728980D01*
X2724150Y739775D02*
X2722880Y741680D01*
X498475Y539750D02*
X488950Y549275D01*
X438150Y549275D01*
X498475Y539750D02*
X499110Y538480D01*
X438150Y549275D02*
X435610Y551180D01*
X679450Y549275D02*
X688975Y539750D01*
X679450Y549275D02*
X628650Y549275D01*
X688975Y539750D02*
X689610Y538480D01*
X628650Y549275D02*
X626110Y551180D01*
X869950Y549275D02*
X879475Y539750D01*
X869950Y549275D02*
X819150Y549275D01*
X879475Y539750D02*
X880110Y538480D01*
X819150Y549275D02*
X816610Y551180D01*
X1060450Y549275D02*
X1069975Y539750D01*
X1060450Y549275D02*
X1009650Y549275D01*
X1069975Y539750D02*
X1070610Y538480D01*
X1009650Y549275D02*
X1007110Y551180D01*
X1250950Y549275D02*
X1260475Y539750D01*
X1250950Y549275D02*
X1200150Y549275D01*
X1260475Y539750D02*
X1261110Y538480D01*
X1200150Y549275D02*
X1197610Y551180D01*
X1441450Y549275D02*
X1450975Y539750D01*
X1441450Y549275D02*
X1390650Y549275D01*
X1450975Y539750D02*
X1451610Y538480D01*
X1390650Y549275D02*
X1388110Y551180D01*
X1631950Y549275D02*
X1641475Y539750D01*
X1631950Y549275D02*
X1581150Y549275D01*
X1641475Y539750D02*
X1642110Y538480D01*
X1581150Y549275D02*
X1578610Y551180D01*
X1822450Y549275D02*
X1831975Y539750D01*
X1822450Y549275D02*
X1771650Y549275D01*
X1831975Y539750D02*
X1832610Y538480D01*
X1771650Y549275D02*
X1769110Y551180D01*
X2012950Y549275D02*
X2022475Y539750D01*
X2012950Y549275D02*
X1962150Y549275D01*
X2022475Y539750D02*
X2023110Y538480D01*
X1962150Y549275D02*
X1959610Y551180D01*
X2203450Y549275D02*
X2212975Y539750D01*
X2203450Y549275D02*
X2152650Y549275D01*
X2212975Y539750D02*
X2213610Y538480D01*
X2152650Y549275D02*
X2150110Y551180D01*
X2393950Y549275D02*
X2403475Y539750D01*
X2393950Y549275D02*
X2343150Y549275D01*
X2403475Y539750D02*
X2404110Y538480D01*
X2343150Y549275D02*
X2340610Y551180D01*
X593725Y349250D02*
X584200Y358775D01*
X533400Y358775D01*
X593725Y349250D02*
X594360Y347980D01*
X533400Y358775D02*
X530860Y360680D01*
X774700Y358775D02*
X784225Y349250D01*
X774700Y358775D02*
X723900Y358775D01*
X784225Y349250D02*
X784860Y347980D01*
X723900Y358775D02*
X721360Y360680D01*
X965200Y358775D02*
X974725Y349250D01*
X965200Y358775D02*
X914400Y358775D01*
X974725Y349250D02*
X975360Y347980D01*
X914400Y358775D02*
X911860Y360680D01*
X1155700Y358775D02*
X1165225Y349250D01*
X1155700Y358775D02*
X1104900Y358775D01*
X1165225Y349250D02*
X1165860Y347980D01*
X1104900Y358775D02*
X1102360Y360680D01*
X1346200Y358775D02*
X1355725Y349250D01*
X1346200Y358775D02*
X1295400Y358775D01*
X1355725Y349250D02*
X1356360Y347980D01*
X1295400Y358775D02*
X1292860Y360680D01*
X1536700Y358775D02*
X1546225Y349250D01*
X1536700Y358775D02*
X1485900Y358775D01*
X1546225Y349250D02*
X1546860Y347980D01*
X1485900Y358775D02*
X1483360Y360680D01*
X1727200Y358775D02*
X1736725Y349250D01*
X1727200Y358775D02*
X1676400Y358775D01*
X1736725Y349250D02*
X1737360Y347980D01*
X1676400Y358775D02*
X1673860Y360680D01*
X1917700Y358775D02*
X1927225Y349250D01*
X1917700Y358775D02*
X1866900Y358775D01*
X1927225Y349250D02*
X1927860Y347980D01*
X1866900Y358775D02*
X1864360Y360680D01*
X2108200Y358775D02*
X2117725Y349250D01*
X2108200Y358775D02*
X2057400Y358775D01*
X2117725Y349250D02*
X2118360Y347980D01*
X2057400Y358775D02*
X2054860Y360680D01*
X2298700Y358775D02*
X2308225Y349250D01*
X2298700Y358775D02*
X2247900Y358775D01*
X2308225Y349250D02*
X2308860Y347980D01*
X2247900Y358775D02*
X2245360Y360680D01*
X593725Y269875D02*
X285750Y269875D01*
X283210Y267970D01*
X593725Y269875D02*
X594360Y271780D01*
X596900Y273050D02*
X784225Y273050D01*
X784860Y271780D01*
X596900Y273050D02*
X594360Y271780D01*
X1358900Y273050D02*
X1546225Y273050D01*
X1546860Y271780D01*
X1358900Y273050D02*
X1356360Y271780D01*
X1930400Y273050D02*
X2117725Y273050D01*
X1930400Y273050D02*
X1927860Y271780D01*
X2117725Y273050D02*
X2118360Y271780D01*
X2120900Y273050D02*
X2308225Y273050D01*
X2308860Y271780D01*
X2120900Y273050D02*
X2118360Y271780D01*
X2311400Y273050D02*
X2657475Y273050D01*
X2658110Y274320D01*
X2311400Y273050D02*
X2308860Y271780D01*
X2216150Y463550D02*
X2403475Y463550D01*
X2216150Y463550D02*
X2213610Y462280D01*
X2403475Y463550D02*
X2404110Y462280D01*
X2406650Y460375D02*
X2705100Y460375D01*
X2707640Y459740D01*
X2406650Y460375D02*
X2404110Y462280D01*
X2022475Y463550D02*
X1835150Y463550D01*
X1832610Y462280D01*
X2022475Y463550D02*
X2023110Y462280D01*
X1641475Y463550D02*
X1454150Y463550D01*
X1451610Y462280D01*
X1641475Y463550D02*
X1642110Y462280D01*
X1260475Y463550D02*
X1073150Y463550D01*
X1070610Y462280D01*
X1260475Y463550D02*
X1261110Y462280D01*
X879475Y463550D02*
X692150Y463550D01*
X689610Y462280D01*
X879475Y463550D02*
X880110Y462280D01*
X498475Y460375D02*
X238125Y460375D01*
X237490Y458470D01*
X498475Y460375D02*
X499110Y462280D01*
X501650Y463550D02*
X688975Y463550D01*
X689610Y462280D01*
X501650Y463550D02*
X499110Y462280D01*
X882650Y463550D02*
X1069975Y463550D01*
X1070610Y462280D01*
X882650Y463550D02*
X880110Y462280D01*
X1263650Y463550D02*
X1450975Y463550D01*
X1451610Y462280D01*
X1263650Y463550D02*
X1261110Y462280D01*
X1644650Y463550D02*
X1831975Y463550D01*
X1832610Y462280D01*
X1644650Y463550D02*
X1642110Y462280D01*
X2025650Y463550D02*
X2212975Y463550D01*
X2213610Y462280D01*
X2025650Y463550D02*
X2023110Y462280D01*
X2168525Y654050D02*
X2355850Y654050D01*
X2168525Y654050D02*
X2167890Y652780D01*
X2355850Y654050D02*
X2358390Y652780D01*
X2359025Y654050D02*
X2546350Y654050D01*
X2548890Y652780D01*
X2359025Y654050D02*
X2358390Y652780D01*
X2549525Y654050D02*
X2625725Y654050D01*
X2787650Y654050D01*
X2788920Y652780D01*
X2549525Y654050D02*
X2548890Y652780D01*
X2625725Y654050D02*
X2625725Y758825D01*
X1974850Y654050D02*
X1787525Y654050D01*
X1786890Y652780D01*
X1974850Y654050D02*
X1977390Y652780D01*
X1593850Y654050D02*
X1406525Y654050D01*
X1405890Y652780D01*
X1593850Y654050D02*
X1596390Y652780D01*
X1212850Y654050D02*
X1025525Y654050D01*
X1024890Y652780D01*
X1212850Y654050D02*
X1215390Y652780D01*
X831850Y654050D02*
X644525Y654050D01*
X643890Y652780D01*
X831850Y654050D02*
X834390Y652780D01*
X450850Y654050D02*
X215900Y654050D01*
X214630Y652780D01*
X450850Y654050D02*
X453390Y652780D01*
X454025Y654050D02*
X641350Y654050D01*
X643890Y652780D01*
X454025Y654050D02*
X453390Y652780D01*
X835025Y654050D02*
X1022350Y654050D01*
X1024890Y652780D01*
X835025Y654050D02*
X834390Y652780D01*
X1216025Y654050D02*
X1403350Y654050D01*
X1405890Y652780D01*
X1216025Y654050D02*
X1215390Y652780D01*
X1597025Y654050D02*
X1784350Y654050D01*
X1786890Y652780D01*
X1597025Y654050D02*
X1596390Y652780D01*
X1978025Y654050D02*
X2165350Y654050D01*
X2167890Y652780D01*
X1978025Y654050D02*
X1977390Y652780D01*
D18*
X2625725Y758825D03*
D17*
X2930525Y869950D02*
X2943225Y882650D01*
X2930525Y869950D02*
X2841625Y869950D01*
X2828925Y857250D01*
X2765425Y857250D02*
X2752725Y857250D01*
X2765425Y857250D02*
X2828925Y857250D01*
X2752725Y857250D02*
X2749550Y860425D01*
X2679700Y860425D01*
X2667000Y847725D01*
X2644775Y847725D01*
X2619375Y873125D01*
X2619375Y904875D01*
X2943225Y882650D02*
X2943860Y883920D01*
X2619375Y904875D02*
X2617470Y906780D01*
X2765425Y857250D02*
X2765425Y838200D01*
D18*
X2765425Y838200D03*
D17*
X212725Y730250D02*
X203200Y739775D01*
X152400Y739775D01*
X212725Y730250D02*
X214630Y728980D01*
X152400Y739775D02*
X152400Y741680D01*
X222250Y549275D02*
X234950Y536575D01*
X222250Y549275D02*
X174625Y549275D01*
X234950Y536575D02*
X237490Y534670D01*
X174625Y549275D02*
X173990Y551180D01*
X269875Y358775D02*
X282575Y346075D01*
X269875Y358775D02*
X222250Y358775D01*
X282575Y346075D02*
X283210Y344170D01*
X222250Y358775D02*
X220980Y360680D01*
X2651125Y358775D02*
X2657475Y352425D01*
X2651125Y358775D02*
X2597150Y358775D01*
X2657475Y352425D02*
X2658110Y350520D01*
X2597150Y358775D02*
X2594610Y360680D01*
X2705100Y536575D02*
X2692400Y549275D01*
X2647950Y549275D01*
X2705100Y536575D02*
X2707640Y535940D01*
X2647950Y549275D02*
X2645410Y551180D01*
X361950Y920750D02*
X352425Y930275D01*
X301625Y930275D01*
X361950Y920750D02*
X363220Y919480D01*
X301625Y930275D02*
X299720Y932180D01*
X542925Y930275D02*
X552450Y920750D01*
X542925Y930275D02*
X492125Y930275D01*
X552450Y920750D02*
X553720Y919480D01*
X492125Y930275D02*
X490220Y932180D01*
X733425Y930275D02*
X742950Y920750D01*
X733425Y930275D02*
X682625Y930275D01*
X742950Y920750D02*
X744220Y919480D01*
X682625Y930275D02*
X680720Y932180D01*
X923925Y930275D02*
X933450Y920750D01*
X923925Y930275D02*
X873125Y930275D01*
X933450Y920750D02*
X934720Y919480D01*
X873125Y930275D02*
X871220Y932180D01*
X1114425Y930275D02*
X1123950Y920750D01*
X1114425Y930275D02*
X1063625Y930275D01*
X1123950Y920750D02*
X1125220Y919480D01*
X1063625Y930275D02*
X1061720Y932180D01*
X1304925Y930275D02*
X1314450Y920750D01*
X1304925Y930275D02*
X1254125Y930275D01*
X1314450Y920750D02*
X1315720Y919480D01*
X1254125Y930275D02*
X1252220Y932180D01*
X1495425Y930275D02*
X1504950Y920750D01*
X1495425Y930275D02*
X1444625Y930275D01*
X1504950Y920750D02*
X1506220Y919480D01*
X1444625Y930275D02*
X1442720Y932180D01*
X1685925Y930275D02*
X1695450Y920750D01*
X1685925Y930275D02*
X1635125Y930275D01*
X1695450Y920750D02*
X1696720Y919480D01*
X1635125Y930275D02*
X1633220Y932180D01*
X1876425Y930275D02*
X1885950Y920750D01*
X1876425Y930275D02*
X1825625Y930275D01*
X1885950Y920750D02*
X1887220Y919480D01*
X1825625Y930275D02*
X1823720Y932180D01*
X2066925Y930275D02*
X2076450Y920750D01*
X2066925Y930275D02*
X2016125Y930275D01*
X2076450Y920750D02*
X2077720Y919480D01*
X2016125Y930275D02*
X2014220Y932180D01*
X2257425Y930275D02*
X2266950Y920750D01*
X2257425Y930275D02*
X2206625Y930275D01*
X2266950Y920750D02*
X2268220Y919480D01*
X2206625Y930275D02*
X2204720Y932180D01*
X2447925Y930275D02*
X2457450Y920750D01*
X2447925Y930275D02*
X2397125Y930275D01*
X2457450Y920750D02*
X2458720Y919480D01*
X2397125Y930275D02*
X2395220Y932180D01*
X2733675Y930275D02*
X2743200Y920750D01*
X2733675Y930275D02*
X2682875Y930275D01*
X2743200Y920750D02*
X2745740Y919480D01*
X2682875Y930275D02*
X2680970Y932180D01*
X171450Y920750D02*
X161925Y930275D01*
X111125Y930275D01*
X171450Y920750D02*
X172720Y919480D01*
X111125Y930275D02*
X109220Y932180D01*
X2079625Y844550D02*
X2266950Y844550D01*
X2079625Y844550D02*
X2077720Y843280D01*
X2266950Y844550D02*
X2268220Y843280D01*
X2270125Y844550D02*
X2457450Y844550D01*
X2458720Y843280D01*
X2270125Y844550D02*
X2268220Y843280D01*
X2460625Y844550D02*
X2743200Y844550D01*
X2745740Y843280D01*
X2460625Y844550D02*
X2458720Y843280D01*
X1885950Y844550D02*
X1698625Y844550D01*
X1696720Y843280D01*
X1885950Y844550D02*
X1887220Y843280D01*
X1504950Y844550D02*
X1317625Y844550D01*
X1315720Y843280D01*
X1504950Y844550D02*
X1506220Y843280D01*
X1123950Y844550D02*
X936625Y844550D01*
X934720Y843280D01*
X1123950Y844550D02*
X1125220Y843280D01*
X361950Y844550D02*
X174625Y844550D01*
X172720Y843280D01*
X361950Y844550D02*
X363220Y843280D01*
X555625Y844550D02*
X742950Y844550D01*
X555625Y844550D02*
X553720Y843280D01*
X742950Y844550D02*
X744220Y843280D01*
X552450Y844550D02*
X365125Y844550D01*
X363220Y843280D01*
X552450Y844550D02*
X553720Y843280D01*
X746125Y844550D02*
X933450Y844550D01*
X934720Y843280D01*
X746125Y844550D02*
X744220Y843280D01*
X1127125Y844550D02*
X1314450Y844550D01*
X1315720Y843280D01*
X1127125Y844550D02*
X1125220Y843280D01*
X1508125Y844550D02*
X1695450Y844550D01*
X1696720Y843280D01*
X1508125Y844550D02*
X1506220Y843280D01*
X1889125Y844550D02*
X2076450Y844550D01*
X2077720Y843280D01*
X1889125Y844550D02*
X1887220Y843280D01*
X193675Y158750D02*
X184150Y168275D01*
X130175Y168275D01*
X193675Y158750D02*
X194310Y156210D01*
X130175Y168275D02*
X129540Y170180D01*
X422275Y168275D02*
X431800Y158750D01*
X422275Y168275D02*
X368300Y168275D01*
X431800Y158750D02*
X431800Y156210D01*
X368300Y168275D02*
X368300Y170180D01*
X660400Y168275D02*
X669925Y158750D01*
X660400Y168275D02*
X609600Y168275D01*
X669925Y158750D02*
X670560Y157480D01*
X609600Y168275D02*
X607060Y170180D01*
X2085975Y171450D02*
X2098675Y158750D01*
X2085975Y171450D02*
X2038350Y171450D01*
X2098675Y158750D02*
X2100580Y157480D01*
X2038350Y171450D02*
X2037080Y171450D01*
X2327275Y171450D02*
X2336800Y161925D01*
X2327275Y171450D02*
X2276475Y171450D01*
X2336800Y161925D02*
X2339340Y160020D01*
X2276475Y171450D02*
X2275840Y171450D01*
X3006725Y819150D02*
X3019425Y831850D01*
X3006725Y819150D02*
X3006725Y682625D01*
X2965450Y682625D01*
X2955925Y692150D01*
X2847975Y692150D01*
X2768600Y612775D01*
X460375Y612775D01*
X374650Y527050D01*
X3019425Y831850D02*
X3020060Y833120D01*
X374650Y527050D02*
X372110Y525780D01*
X2438400Y450850D02*
X2667000Y450850D01*
X2438400Y450850D02*
X2365375Y377825D01*
X701675Y377825D01*
X660400Y336550D01*
X657860Y335280D01*
D18*
X2667000Y450850D03*
D17*
X3006725Y869950D02*
X3019425Y882650D01*
X3006725Y869950D02*
X3006725Y844550D01*
X3022600Y844550D01*
X3032125Y835025D01*
X3032125Y669925D01*
X2965450Y669925D01*
X2943225Y647700D01*
X2809875Y647700D01*
X2771775Y609600D01*
X838200Y609600D01*
X755650Y527050D01*
X3019425Y882650D02*
X3020060Y883920D01*
X755650Y527050D02*
X753110Y525780D01*
X3009900Y920750D02*
X3019425Y911225D01*
X3009900Y920750D02*
X2768600Y920750D01*
X2749550Y901700D01*
X2679700Y901700D01*
X2657475Y923925D01*
X2476500Y923925D01*
X2451100Y949325D01*
X850900Y949325D01*
X809625Y908050D01*
X3019425Y911225D02*
X3020060Y909320D01*
X809625Y908050D02*
X807720Y906780D01*
X2981325Y974725D02*
X3019425Y936625D01*
X2981325Y974725D02*
X2835275Y974725D01*
X2816225Y993775D01*
X1143000Y993775D01*
X1114425Y1022350D01*
X1114425Y1092200D01*
X1184275Y1092200D01*
X1187450Y1095375D01*
X3019425Y936625D02*
X3020060Y934720D01*
X1188720Y1097280D02*
X1187450Y1095375D01*
X2981325Y1000125D02*
X3019425Y962025D01*
X2981325Y1000125D02*
X1444625Y1000125D01*
X3019425Y962025D02*
X3020060Y960120D01*
D18*
X1444625Y1000125D03*
D17*
X3006725Y1000125D02*
X3019425Y987425D01*
X3006725Y1000125D02*
X2987675Y1000125D01*
X2965450Y1022350D01*
X2847975Y1022350D01*
X2841625Y1016000D01*
X1619250Y1016000D01*
X3019425Y987425D02*
X3020060Y985520D01*
D18*
X1619250Y1016000D03*
D17*
X3006725Y1025525D02*
X3019425Y1012825D01*
X3006725Y1025525D02*
X2892425Y1025525D01*
X2867025Y1050925D01*
X2774950Y1050925D01*
X2762250Y1038225D01*
X2667000Y1038225D01*
X2654300Y1050925D01*
X2584450Y1050925D01*
X2571750Y1038225D01*
X2476500Y1038225D01*
X2463800Y1050925D01*
X2393950Y1050925D01*
X2381250Y1038225D01*
X2286000Y1038225D01*
X2273300Y1050925D01*
X2203450Y1050925D01*
X2190750Y1038225D01*
X2095500Y1038225D01*
X2082800Y1050925D01*
X2012950Y1050925D01*
X2000250Y1038225D01*
X1905000Y1038225D01*
X1838325Y1104900D01*
X1768475Y1104900D01*
X1762125Y1098550D01*
X3019425Y1012825D02*
X3020060Y1010920D01*
X1762125Y1098550D02*
X1760220Y1097280D01*
X3006725Y1050925D02*
X3019425Y1038225D01*
X3006725Y1050925D02*
X2892425Y1050925D01*
X2867025Y1076325D01*
X2844800Y1076325D01*
X3019425Y1038225D02*
X3020060Y1036320D01*
D18*
X2844800Y1076325D03*
D17*
X2955925Y1127125D02*
X3019425Y1063625D01*
X2955925Y1127125D02*
X2794000Y1127125D01*
X2781300Y1139825D01*
X2184400Y1139825D01*
X2143125Y1098550D01*
X3019425Y1063625D02*
X3020060Y1061720D01*
X2143125Y1098550D02*
X2141220Y1097280D01*
X2400300Y371475D02*
X2435225Y336550D01*
X2530475Y336550D01*
X2531110Y335280D01*
D18*
X2400300Y371475D03*
D17*
X2692400Y146050D02*
X2771775Y225425D01*
X2771775Y517525D01*
X2647950Y517525D01*
X2632075Y533400D01*
X2590800Y533400D01*
X2584450Y527050D01*
X2689860Y146050D02*
X2692400Y146050D01*
X2581910Y525780D02*
X2584450Y527050D01*
X2505075Y527050D02*
X2428875Y603250D01*
X2505075Y527050D02*
X2581275Y527050D01*
X2581910Y525780D01*
D18*
X2428875Y603250D03*
D17*
X552450Y1111250D02*
X542925Y1120775D01*
X492125Y1120775D01*
X552450Y1111250D02*
X553720Y1109980D01*
X492125Y1120775D02*
X490220Y1122680D01*
X733425Y1120775D02*
X742950Y1111250D01*
X733425Y1120775D02*
X682625Y1120775D01*
X742950Y1111250D02*
X744220Y1109980D01*
X682625Y1120775D02*
X680720Y1122680D01*
X923925Y1120775D02*
X933450Y1111250D01*
X923925Y1120775D02*
X873125Y1120775D01*
X933450Y1111250D02*
X934720Y1109980D01*
X873125Y1120775D02*
X871220Y1122680D01*
X1114425Y1120775D02*
X1123950Y1111250D01*
X1114425Y1120775D02*
X1063625Y1120775D01*
X1123950Y1111250D02*
X1125220Y1109980D01*
X1063625Y1120775D02*
X1061720Y1122680D01*
X1304925Y1120775D02*
X1314450Y1111250D01*
X1304925Y1120775D02*
X1254125Y1120775D01*
X1314450Y1111250D02*
X1315720Y1109980D01*
X1254125Y1120775D02*
X1252220Y1122680D01*
X1495425Y1120775D02*
X1504950Y1111250D01*
X1495425Y1120775D02*
X1444625Y1120775D01*
X1504950Y1111250D02*
X1506220Y1109980D01*
X1444625Y1120775D02*
X1442720Y1122680D01*
X1685925Y1120775D02*
X1695450Y1111250D01*
X1685925Y1120775D02*
X1635125Y1120775D01*
X1695450Y1111250D02*
X1696720Y1109980D01*
X1635125Y1120775D02*
X1633220Y1122680D01*
X1876425Y1120775D02*
X1885950Y1111250D01*
X1876425Y1120775D02*
X1825625Y1120775D01*
X1885950Y1111250D02*
X1887220Y1109980D01*
X1825625Y1120775D02*
X1823720Y1122680D01*
X2066925Y1120775D02*
X2076450Y1111250D01*
X2066925Y1120775D02*
X2016125Y1120775D01*
X2076450Y1111250D02*
X2077720Y1109980D01*
X2016125Y1120775D02*
X2014220Y1122680D01*
X2257425Y1120775D02*
X2266950Y1111250D01*
X2257425Y1120775D02*
X2206625Y1120775D01*
X2266950Y1111250D02*
X2268220Y1109980D01*
X2206625Y1120775D02*
X2204720Y1122680D01*
X2447925Y1120775D02*
X2457450Y1111250D01*
X2447925Y1120775D02*
X2397125Y1120775D01*
X2457450Y1111250D02*
X2458720Y1109980D01*
X2397125Y1120775D02*
X2395220Y1122680D01*
X2638425Y1120775D02*
X2647950Y1111250D01*
X2638425Y1120775D02*
X2587625Y1120775D01*
X2647950Y1111250D02*
X2649220Y1109980D01*
X2587625Y1120775D02*
X2585720Y1122680D01*
X2651125Y1035050D02*
X2838450Y1035050D01*
X2651125Y1035050D02*
X2649220Y1033780D01*
X2838450Y1035050D02*
X2839720Y1033780D01*
X2457450Y1035050D02*
X2270125Y1035050D01*
X2268220Y1033780D01*
X2457450Y1035050D02*
X2458720Y1033780D01*
X2076450Y1035050D02*
X1889125Y1035050D01*
X1887220Y1033780D01*
X2076450Y1035050D02*
X2077720Y1033780D01*
X1695450Y1035050D02*
X1508125Y1035050D01*
X1506220Y1033780D01*
X1695450Y1035050D02*
X1696720Y1033780D01*
X1314450Y1035050D02*
X1127125Y1035050D01*
X1125220Y1033780D01*
X1314450Y1035050D02*
X1315720Y1033780D01*
X933450Y1035050D02*
X746125Y1035050D01*
X744220Y1033780D01*
X933450Y1035050D02*
X934720Y1033780D01*
X279400Y1022350D02*
X269875Y1031875D01*
X279400Y1022350D02*
X542925Y1022350D01*
X552450Y1031875D01*
X269875Y1031875D02*
X267970Y1033780D01*
X552450Y1031875D02*
X553720Y1033780D01*
X555625Y1035050D02*
X742950Y1035050D01*
X744220Y1033780D01*
X555625Y1035050D02*
X553720Y1033780D01*
X1317625Y1035050D02*
X1504950Y1035050D01*
X1506220Y1033780D01*
X1317625Y1035050D02*
X1315720Y1033780D01*
X1698625Y1035050D02*
X1885950Y1035050D01*
X1887220Y1033780D01*
X1698625Y1035050D02*
X1696720Y1033780D01*
X2079625Y1035050D02*
X2266950Y1035050D01*
X2268220Y1033780D01*
X2079625Y1035050D02*
X2077720Y1033780D01*
X107950Y663575D02*
X107950Y527050D01*
X107950Y663575D02*
X92075Y679450D01*
X92075Y714375D01*
X88900Y714375D01*
X107950Y527050D02*
X110490Y525780D01*
X88900Y714375D02*
X88900Y716280D01*
X111125Y523875D02*
X111125Y511175D01*
X117475Y504825D01*
X117475Y336550D01*
X155575Y336550D01*
X111125Y523875D02*
X110490Y525780D01*
X155575Y336550D02*
X157480Y335280D01*
X2844800Y831850D02*
X2867025Y809625D01*
X2844800Y831850D02*
X2755900Y831850D01*
X2749550Y825500D01*
X2552700Y825500D01*
X2546350Y831850D01*
X2466975Y831850D01*
X2460625Y825500D01*
X95250Y825500D01*
X57150Y863600D02*
X50800Y869950D01*
X57150Y863600D02*
X95250Y825500D01*
X50800Y869950D02*
X50800Y904875D01*
X47625Y904875D01*
X2867025Y809625D02*
X2867660Y807720D01*
X47625Y904875D02*
X45720Y906780D01*
X66675Y713740D02*
X86360Y713740D01*
X66675Y713740D02*
X12700Y767715D01*
X12700Y863600D01*
X25400Y863600D02*
X57150Y863600D01*
X25400Y863600D02*
X12700Y863600D01*
X88900Y716280D02*
X86360Y713740D01*
X2565400Y171450D02*
X2578100Y158750D01*
X2565400Y171450D02*
X2514600Y171450D01*
X2578100Y158750D02*
X2579370Y157480D01*
X2803525Y171450D02*
X2816225Y158750D01*
X2803525Y171450D02*
X2755900Y171450D01*
X2816225Y158750D02*
X2818130Y158750D01*
X2755900Y171450D02*
X2753360Y171450D01*
X2838450Y1111250D02*
X2828925Y1120775D01*
X2778125Y1120775D01*
X2838450Y1111250D02*
X2839720Y1109980D01*
X2778125Y1120775D02*
X2776220Y1122680D01*
X431800Y82550D02*
X196850Y82550D01*
X194310Y80010D01*
X431800Y80010D02*
X431800Y82550D01*
X2581275Y82550D02*
X2816225Y82550D01*
X2581275Y82550D02*
X2579370Y81280D01*
X2816225Y82550D02*
X2818130Y82550D01*
X1384300Y161925D02*
X1377950Y168275D01*
X1323975Y168275D01*
X1384300Y161925D02*
X1385570Y161290D01*
X1323975Y168275D02*
X1322070Y170180D01*
X266700Y1111250D02*
X257175Y1120775D01*
X206375Y1120775D01*
X266700Y1111250D02*
X267970Y1109980D01*
X206375Y1120775D02*
X204470Y1122680D01*
X2981325Y723900D02*
X2990850Y733425D01*
X2981325Y723900D02*
X2978900Y721130D01*
X330200Y1047750D02*
X304800Y1073150D01*
X304800Y1114425D01*
X307975Y1114425D01*
X342900Y1149350D01*
X2959100Y1149350D01*
X2994025Y1114425D01*
X330720Y1044810D02*
X330200Y1047750D01*
X2994025Y1114425D02*
X2994660Y1112520D01*
D18*
X2990850Y733425D03*
D17*
X2978150Y692150D02*
X2943225Y727075D01*
X2936875Y727075D01*
X2898775Y765175D01*
X2898775Y796925D01*
X2905125Y796925D02*
X2933700Y796925D01*
X2905125Y796925D02*
X2898775Y796925D01*
X2933700Y796925D02*
X2943225Y806450D01*
X2978150Y692150D02*
X2978900Y691130D01*
X2943225Y806450D02*
X2943860Y807720D01*
X2905125Y796925D02*
X2905125Y847725D01*
X2857500Y847725D01*
X393700Y1031875D02*
X295275Y1031875D01*
X393700Y1031875D02*
X395720Y1033810D01*
X52070Y787400D02*
X1409700Y787400D01*
X1410970Y784860D01*
X1431925Y765175D02*
X2898775Y765175D01*
X1431925Y765175D02*
X1412875Y784225D01*
X1410970Y784860D01*
D18*
X2857500Y847725D03*
X295275Y1031875D03*
D17*
X330200Y1095375D02*
X330200Y1114425D01*
X330200Y1095375D02*
X317500Y1095375D01*
X314325Y1092200D01*
X314325Y1076325D01*
X355600Y1076325D01*
X358775Y1079500D01*
X384175Y1079500D01*
X425450Y1038225D01*
X536575Y1038225D01*
X549275Y1050925D01*
X631825Y1050925D01*
X644525Y1038225D01*
X727075Y1038225D01*
X739775Y1050925D01*
X822325Y1050925D01*
X835025Y1038225D01*
X917575Y1038225D01*
X930275Y1050925D01*
X977900Y1050925D01*
X1050925Y977900D01*
X2825750Y977900D01*
X2867025Y936625D01*
X330720Y1114810D02*
X330200Y1114425D01*
X2867025Y936625D02*
X2867660Y934720D01*
X358775Y1111250D02*
X333375Y1085850D01*
X358775Y1111250D02*
X419100Y1111250D01*
X447675Y1139825D01*
X831850Y1139825D01*
X882650Y1089025D01*
X946150Y1089025D01*
X1047750Y987425D01*
X2813050Y987425D01*
X333375Y1085850D02*
X330720Y1084810D01*
D18*
X2813050Y987425D03*
D17*
X2914650Y771525D02*
X2921000Y765175D01*
X2952750Y765175D01*
X2965450Y752475D01*
X2994025Y752475D01*
X2994025Y796925D01*
X2990850Y796925D01*
X2984500Y803275D01*
X2984500Y895350D01*
X2879725Y895350D01*
X2870200Y885825D01*
X2913900Y772130D02*
X2914650Y771525D01*
X2867660Y883920D02*
X2870200Y885825D01*
X2981325Y847725D02*
X2981325Y762000D01*
X2981325Y847725D02*
X2911475Y847725D01*
X2901950Y857250D01*
X2870200Y857250D01*
X2978900Y761130D02*
X2981325Y762000D01*
X2870200Y857250D02*
X2867660Y858520D01*
M02*
