G04 EAGLE Gerber X2 export*
%TF.Part,Single*%
%TF.FileFunction,Copper,L1,Top,Mixed*%
%TF.FilePolarity,Positive*%
%TF.GenerationSoftware,Autodesk,EAGLE,9.1.2*%
%TF.CreationDate,2018-08-12T18:09:38Z*%
G75*
%MOMM*%
%FSLAX34Y34*%
%LPD*%
%AMOC8*
5,1,8,0,0,1.08239X$1,22.5*%
G01*
%ADD10C,2.540000*%
%ADD11C,2.571600*%
%ADD12C,1.320800*%
%ADD13C,2.250000*%
%ADD14C,0.300000*%
%ADD15C,5.334000*%
%ADD16R,1.100000X1.000000*%
%ADD17C,1.473200*%
%ADD18C,0.152400*%
%ADD19C,0.756400*%


D10*
X326390Y716280D03*
X389890Y741680D03*
D11*
X313690Y690880D03*
X415290Y690880D03*
D10*
X516890Y716280D03*
X580390Y741680D03*
D11*
X504190Y690880D03*
X605790Y690880D03*
D10*
X707390Y716280D03*
X770890Y741680D03*
D11*
X694690Y690880D03*
X796290Y690880D03*
D10*
X897890Y716280D03*
X961390Y741680D03*
D11*
X885190Y690880D03*
X986790Y690880D03*
D10*
X1088390Y716280D03*
X1151890Y741680D03*
D11*
X1075690Y690880D03*
X1177290Y690880D03*
D10*
X1278890Y716280D03*
X1342390Y741680D03*
D11*
X1266190Y690880D03*
X1367790Y690880D03*
D10*
X1469390Y716280D03*
X1532890Y741680D03*
D11*
X1456690Y690880D03*
X1558290Y690880D03*
D10*
X1659890Y716280D03*
X1723390Y741680D03*
D11*
X1647190Y690880D03*
X1748790Y690880D03*
D10*
X1850390Y716280D03*
X1913890Y741680D03*
D11*
X1837690Y690880D03*
X1939290Y690880D03*
D10*
X2040890Y716280D03*
X2104390Y741680D03*
D11*
X2028190Y690880D03*
X2129790Y690880D03*
D10*
X2231390Y716280D03*
X2294890Y741680D03*
D11*
X2218690Y690880D03*
X2320290Y690880D03*
D10*
X2421890Y716280D03*
X2485390Y741680D03*
D11*
X2409190Y690880D03*
X2510790Y690880D03*
D10*
X2659380Y716280D03*
X2722880Y741680D03*
D11*
X2646680Y690880D03*
X2748280Y690880D03*
D12*
X453390Y722376D02*
X453390Y735584D01*
X453390Y659384D02*
X453390Y646176D01*
X643890Y722376D02*
X643890Y735584D01*
X643890Y659384D02*
X643890Y646176D01*
X834390Y722376D02*
X834390Y735584D01*
X834390Y659384D02*
X834390Y646176D01*
X1024890Y722376D02*
X1024890Y735584D01*
X1024890Y659384D02*
X1024890Y646176D01*
X1215390Y722376D02*
X1215390Y735584D01*
X1215390Y659384D02*
X1215390Y646176D01*
X1405890Y722376D02*
X1405890Y735584D01*
X1405890Y659384D02*
X1405890Y646176D01*
X1596390Y722376D02*
X1596390Y735584D01*
X1596390Y659384D02*
X1596390Y646176D01*
X1786890Y722376D02*
X1786890Y735584D01*
X1786890Y659384D02*
X1786890Y646176D01*
X1977390Y722376D02*
X1977390Y735584D01*
X1977390Y659384D02*
X1977390Y646176D01*
X2167890Y722376D02*
X2167890Y735584D01*
X2167890Y659384D02*
X2167890Y646176D01*
X2358390Y722376D02*
X2358390Y735584D01*
X2358390Y659384D02*
X2358390Y646176D01*
X2548890Y722376D02*
X2548890Y735584D01*
X2548890Y659384D02*
X2548890Y646176D01*
X2788920Y722376D02*
X2788920Y735584D01*
X2788920Y659384D02*
X2788920Y646176D01*
D10*
X372110Y525780D03*
X435610Y551180D03*
D11*
X359410Y500380D03*
X461010Y500380D03*
D10*
X562610Y525780D03*
X626110Y551180D03*
D11*
X549910Y500380D03*
X651510Y500380D03*
D10*
X753110Y525780D03*
X816610Y551180D03*
D11*
X740410Y500380D03*
X842010Y500380D03*
D10*
X943610Y525780D03*
X1007110Y551180D03*
D11*
X930910Y500380D03*
X1032510Y500380D03*
D10*
X1134110Y525780D03*
X1197610Y551180D03*
D11*
X1121410Y500380D03*
X1223010Y500380D03*
D10*
X1324610Y525780D03*
X1388110Y551180D03*
D11*
X1311910Y500380D03*
X1413510Y500380D03*
D10*
X1515110Y525780D03*
X1578610Y551180D03*
D11*
X1502410Y500380D03*
X1604010Y500380D03*
D10*
X1705610Y525780D03*
X1769110Y551180D03*
D11*
X1692910Y500380D03*
X1794510Y500380D03*
D10*
X1896110Y525780D03*
X1959610Y551180D03*
D11*
X1883410Y500380D03*
X1985010Y500380D03*
D10*
X2086610Y525780D03*
X2150110Y551180D03*
D11*
X2073910Y500380D03*
X2175510Y500380D03*
D10*
X2277110Y525780D03*
X2340610Y551180D03*
D11*
X2264410Y500380D03*
X2366010Y500380D03*
D12*
X499110Y531876D02*
X499110Y545084D01*
X499110Y468884D02*
X499110Y455676D01*
X689610Y531876D02*
X689610Y545084D01*
X689610Y468884D02*
X689610Y455676D01*
X880110Y531876D02*
X880110Y545084D01*
X880110Y468884D02*
X880110Y455676D01*
X1070610Y531876D02*
X1070610Y545084D01*
X1070610Y468884D02*
X1070610Y455676D01*
X1261110Y531876D02*
X1261110Y545084D01*
X1261110Y468884D02*
X1261110Y455676D01*
X1451610Y531876D02*
X1451610Y545084D01*
X1451610Y468884D02*
X1451610Y455676D01*
X1642110Y531876D02*
X1642110Y545084D01*
X1642110Y468884D02*
X1642110Y455676D01*
X1832610Y531876D02*
X1832610Y545084D01*
X1832610Y468884D02*
X1832610Y455676D01*
X2023110Y531876D02*
X2023110Y545084D01*
X2023110Y468884D02*
X2023110Y455676D01*
X2213610Y531876D02*
X2213610Y545084D01*
X2213610Y468884D02*
X2213610Y455676D01*
X2404110Y531876D02*
X2404110Y545084D01*
X2404110Y468884D02*
X2404110Y455676D01*
D10*
X467360Y335280D03*
X530860Y360680D03*
D11*
X454660Y309880D03*
X556260Y309880D03*
D10*
X657860Y335280D03*
X721360Y360680D03*
D11*
X645160Y309880D03*
X746760Y309880D03*
D10*
X848360Y335280D03*
X911860Y360680D03*
D11*
X835660Y309880D03*
X937260Y309880D03*
D10*
X1038860Y335280D03*
X1102360Y360680D03*
D11*
X1026160Y309880D03*
X1127760Y309880D03*
D10*
X1229360Y335280D03*
X1292860Y360680D03*
D11*
X1216660Y309880D03*
X1318260Y309880D03*
D10*
X1419860Y335280D03*
X1483360Y360680D03*
D11*
X1407160Y309880D03*
X1508760Y309880D03*
D10*
X1610360Y335280D03*
X1673860Y360680D03*
D11*
X1597660Y309880D03*
X1699260Y309880D03*
D10*
X1800860Y335280D03*
X1864360Y360680D03*
D11*
X1788160Y309880D03*
X1889760Y309880D03*
D10*
X1991360Y335280D03*
X2054860Y360680D03*
D11*
X1978660Y309880D03*
X2080260Y309880D03*
D10*
X2181860Y335280D03*
X2245360Y360680D03*
D11*
X2169160Y309880D03*
X2270760Y309880D03*
D12*
X594360Y341376D02*
X594360Y354584D01*
X594360Y278384D02*
X594360Y265176D01*
X784860Y341376D02*
X784860Y354584D01*
X784860Y278384D02*
X784860Y265176D01*
X975360Y341376D02*
X975360Y354584D01*
X975360Y278384D02*
X975360Y265176D01*
X1165860Y341376D02*
X1165860Y354584D01*
X1165860Y278384D02*
X1165860Y265176D01*
X1356360Y341376D02*
X1356360Y354584D01*
X1356360Y278384D02*
X1356360Y265176D01*
X1546860Y341376D02*
X1546860Y354584D01*
X1546860Y278384D02*
X1546860Y265176D01*
X1737360Y341376D02*
X1737360Y354584D01*
X1737360Y278384D02*
X1737360Y265176D01*
X1927860Y341376D02*
X1927860Y354584D01*
X1927860Y278384D02*
X1927860Y265176D01*
X2118360Y341376D02*
X2118360Y354584D01*
X2118360Y278384D02*
X2118360Y265176D01*
X2308860Y341376D02*
X2308860Y354584D01*
X2308860Y278384D02*
X2308860Y265176D01*
D10*
X88900Y716280D03*
X152400Y741680D03*
D11*
X76200Y690880D03*
X177800Y690880D03*
D10*
X110490Y525780D03*
X173990Y551180D03*
D11*
X97790Y500380D03*
X199390Y500380D03*
D12*
X214630Y722376D02*
X214630Y735584D01*
X214630Y659384D02*
X214630Y646176D01*
X237490Y541274D02*
X237490Y528066D01*
X237490Y465074D02*
X237490Y451866D01*
X283210Y350774D02*
X283210Y337566D01*
X283210Y274574D02*
X283210Y261366D01*
X2658110Y343916D02*
X2658110Y357124D01*
X2658110Y280924D02*
X2658110Y267716D01*
X2707640Y529336D02*
X2707640Y542544D01*
X2707640Y466344D02*
X2707640Y453136D01*
D10*
X236220Y906780D03*
X299720Y932180D03*
D11*
X223520Y881380D03*
X325120Y881380D03*
D10*
X426720Y906780D03*
X490220Y932180D03*
D11*
X414020Y881380D03*
X515620Y881380D03*
D10*
X617220Y906780D03*
X680720Y932180D03*
D11*
X604520Y881380D03*
X706120Y881380D03*
D10*
X807720Y906780D03*
X871220Y932180D03*
D11*
X795020Y881380D03*
X896620Y881380D03*
D10*
X998220Y906780D03*
X1061720Y932180D03*
D11*
X985520Y881380D03*
X1087120Y881380D03*
D10*
X1188720Y906780D03*
X1252220Y932180D03*
D11*
X1176020Y881380D03*
X1277620Y881380D03*
D10*
X1379220Y906780D03*
X1442720Y932180D03*
D11*
X1366520Y881380D03*
X1468120Y881380D03*
D10*
X1569720Y906780D03*
X1633220Y932180D03*
D11*
X1557020Y881380D03*
X1658620Y881380D03*
D10*
X1760220Y906780D03*
X1823720Y932180D03*
D11*
X1747520Y881380D03*
X1849120Y881380D03*
D10*
X1950720Y906780D03*
X2014220Y932180D03*
D11*
X1938020Y881380D03*
X2039620Y881380D03*
D10*
X2141220Y906780D03*
X2204720Y932180D03*
D11*
X2128520Y881380D03*
X2230120Y881380D03*
D10*
X2331720Y906780D03*
X2395220Y932180D03*
D11*
X2319020Y881380D03*
X2420620Y881380D03*
D12*
X363220Y912876D02*
X363220Y926084D01*
X363220Y849884D02*
X363220Y836676D01*
X553720Y912876D02*
X553720Y926084D01*
X553720Y849884D02*
X553720Y836676D01*
X744220Y912876D02*
X744220Y926084D01*
X744220Y849884D02*
X744220Y836676D01*
X934720Y912876D02*
X934720Y926084D01*
X934720Y849884D02*
X934720Y836676D01*
X1125220Y912876D02*
X1125220Y926084D01*
X1125220Y849884D02*
X1125220Y836676D01*
X1315720Y912876D02*
X1315720Y926084D01*
X1315720Y849884D02*
X1315720Y836676D01*
X1506220Y912876D02*
X1506220Y926084D01*
X1506220Y849884D02*
X1506220Y836676D01*
X1696720Y912876D02*
X1696720Y926084D01*
X1696720Y849884D02*
X1696720Y836676D01*
X1887220Y912876D02*
X1887220Y926084D01*
X1887220Y849884D02*
X1887220Y836676D01*
X2077720Y912876D02*
X2077720Y926084D01*
X2077720Y849884D02*
X2077720Y836676D01*
X2268220Y912876D02*
X2268220Y926084D01*
X2268220Y849884D02*
X2268220Y836676D01*
X2458720Y912876D02*
X2458720Y926084D01*
X2458720Y849884D02*
X2458720Y836676D01*
X2745740Y912876D02*
X2745740Y926084D01*
X2745740Y849884D02*
X2745740Y836676D01*
D10*
X45720Y906780D03*
X109220Y932180D03*
D11*
X33020Y881380D03*
X134620Y881380D03*
D12*
X172720Y912876D02*
X172720Y926084D01*
X172720Y849884D02*
X172720Y836676D01*
D10*
X66040Y144780D03*
X129540Y170180D03*
D11*
X53340Y119380D03*
X154940Y119380D03*
D10*
X304800Y144780D03*
X368300Y170180D03*
D11*
X292100Y119380D03*
X393700Y119380D03*
D10*
X543560Y144780D03*
X607060Y170180D03*
D11*
X530860Y119380D03*
X632460Y119380D03*
D10*
X1973580Y146050D03*
X2037080Y171450D03*
D11*
X1960880Y120650D03*
X2062480Y120650D03*
D10*
X2212340Y146050D03*
X2275840Y171450D03*
D11*
X2199640Y120650D03*
X2301240Y120650D03*
D12*
X194310Y149606D02*
X194310Y162814D01*
X194310Y86614D02*
X194310Y73406D01*
X431800Y149606D02*
X431800Y162814D01*
X431800Y86614D02*
X431800Y73406D01*
X670560Y150876D02*
X670560Y164084D01*
X670560Y87884D02*
X670560Y74676D01*
X1385570Y154686D02*
X1385570Y167894D01*
X1385570Y91694D02*
X1385570Y78486D01*
X2100580Y150876D02*
X2100580Y164084D01*
X2100580Y87884D02*
X2100580Y74676D01*
X2339340Y153416D02*
X2339340Y166624D01*
X2339340Y90424D02*
X2339340Y77216D01*
D10*
X426720Y1097280D03*
X490220Y1122680D03*
D11*
X414020Y1071880D03*
X515620Y1071880D03*
D10*
X617220Y1097280D03*
X680720Y1122680D03*
D11*
X604520Y1071880D03*
X706120Y1071880D03*
D10*
X807720Y1097280D03*
X871220Y1122680D03*
D11*
X795020Y1071880D03*
X896620Y1071880D03*
D10*
X998220Y1097280D03*
X1061720Y1122680D03*
D11*
X985520Y1071880D03*
X1087120Y1071880D03*
D10*
X1188720Y1097280D03*
X1252220Y1122680D03*
D11*
X1176020Y1071880D03*
X1277620Y1071880D03*
D10*
X1379220Y1097280D03*
X1442720Y1122680D03*
D11*
X1366520Y1071880D03*
X1468120Y1071880D03*
D10*
X1569720Y1097280D03*
X1633220Y1122680D03*
D11*
X1557020Y1071880D03*
X1658620Y1071880D03*
D10*
X1760220Y1097280D03*
X1823720Y1122680D03*
D11*
X1747520Y1071880D03*
X1849120Y1071880D03*
D10*
X1950720Y1097280D03*
X2014220Y1122680D03*
D11*
X1938020Y1071880D03*
X2039620Y1071880D03*
D10*
X2141220Y1097280D03*
X2204720Y1122680D03*
D11*
X2128520Y1071880D03*
X2230120Y1071880D03*
D10*
X2331720Y1097280D03*
X2395220Y1122680D03*
D11*
X2319020Y1071880D03*
X2420620Y1071880D03*
D10*
X2522220Y1097280D03*
X2585720Y1122680D03*
D11*
X2509520Y1071880D03*
X2611120Y1071880D03*
D12*
X553720Y1103376D02*
X553720Y1116584D01*
X553720Y1040384D02*
X553720Y1027176D01*
X744220Y1103376D02*
X744220Y1116584D01*
X744220Y1040384D02*
X744220Y1027176D01*
X934720Y1103376D02*
X934720Y1116584D01*
X934720Y1040384D02*
X934720Y1027176D01*
X1125220Y1103376D02*
X1125220Y1116584D01*
X1125220Y1040384D02*
X1125220Y1027176D01*
X1315720Y1103376D02*
X1315720Y1116584D01*
X1315720Y1040384D02*
X1315720Y1027176D01*
X1506220Y1103376D02*
X1506220Y1116584D01*
X1506220Y1040384D02*
X1506220Y1027176D01*
X1696720Y1103376D02*
X1696720Y1116584D01*
X1696720Y1040384D02*
X1696720Y1027176D01*
X1887220Y1103376D02*
X1887220Y1116584D01*
X1887220Y1040384D02*
X1887220Y1027176D01*
X2077720Y1103376D02*
X2077720Y1116584D01*
X2077720Y1040384D02*
X2077720Y1027176D01*
X2268220Y1103376D02*
X2268220Y1116584D01*
X2268220Y1040384D02*
X2268220Y1027176D01*
X2458720Y1103376D02*
X2458720Y1116584D01*
X2458720Y1040384D02*
X2458720Y1027176D01*
X2649220Y1103376D02*
X2649220Y1116584D01*
X2649220Y1040384D02*
X2649220Y1027176D01*
X267970Y1103376D02*
X267970Y1116584D01*
X267970Y1040384D02*
X267970Y1027176D01*
D10*
X2451100Y146050D03*
X2514600Y171450D03*
D11*
X2438400Y120650D03*
X2540000Y120650D03*
D12*
X2579370Y150876D02*
X2579370Y164084D01*
X2579370Y87884D02*
X2579370Y74676D01*
D10*
X2689860Y146050D03*
X2753360Y171450D03*
D11*
X2677160Y120650D03*
X2778760Y120650D03*
D12*
X2818130Y152146D02*
X2818130Y165354D01*
X2818130Y89154D02*
X2818130Y75946D01*
D10*
X2712720Y1097280D03*
X2776220Y1122680D03*
D11*
X2700020Y1071880D03*
X2801620Y1071880D03*
D12*
X2839720Y1103376D02*
X2839720Y1116584D01*
X2839720Y1040384D02*
X2839720Y1027176D01*
D13*
X1258570Y144780D03*
X1322070Y170180D03*
X140970Y1097280D03*
X204470Y1122680D03*
X157480Y335280D03*
X220980Y360680D03*
X2531110Y335280D03*
X2594610Y360680D03*
X2581910Y525780D03*
X2645410Y551180D03*
X2617470Y906780D03*
X2680970Y932180D03*
D14*
X2916230Y751650D02*
X2923230Y751650D01*
X2923230Y744650D01*
X2916230Y744650D01*
X2916230Y751650D01*
X2916230Y747500D02*
X2923230Y747500D01*
X2923230Y750350D02*
X2916230Y750350D01*
X2916230Y769190D02*
X2923230Y769190D01*
X2923230Y762190D01*
X2916230Y762190D01*
X2916230Y769190D01*
X2916230Y765040D02*
X2923230Y765040D01*
X2923230Y767890D02*
X2916230Y767890D01*
X2969570Y751650D02*
X2976570Y751650D01*
X2976570Y744650D01*
X2969570Y744650D01*
X2969570Y751650D01*
X2969570Y747500D02*
X2976570Y747500D01*
X2976570Y750350D02*
X2969570Y750350D01*
X2969570Y769190D02*
X2976570Y769190D01*
X2976570Y762190D01*
X2969570Y762190D01*
X2969570Y769190D01*
X2969570Y765040D02*
X2976570Y765040D01*
X2976570Y767890D02*
X2969570Y767890D01*
D15*
X2616200Y50800D03*
X229870Y49530D03*
X1410970Y784860D03*
X52070Y787400D03*
D16*
X2905370Y764540D03*
X2888370Y764540D03*
X2987430Y765810D03*
X3004430Y765810D03*
D17*
X2867660Y1137920D03*
X2867660Y1112520D03*
X2867660Y1087120D03*
X2867660Y1061720D03*
X2867660Y1036320D03*
X2867660Y1010920D03*
X2867660Y985520D03*
X2867660Y960120D03*
X2867660Y934720D03*
X2867660Y909320D03*
X2867660Y883920D03*
X2867660Y858520D03*
X2867660Y833120D03*
X2867660Y807720D03*
X2893060Y807720D03*
X2918460Y807720D03*
X2943860Y807720D03*
X2969260Y807720D03*
X2994660Y807720D03*
X3020060Y807720D03*
X3020060Y833120D03*
X3020060Y858520D03*
X3020060Y883920D03*
X3020060Y909320D03*
X3020060Y934720D03*
X3020060Y960120D03*
X3020060Y985520D03*
X3020060Y1010920D03*
X3020060Y1036320D03*
X3020060Y1061720D03*
X3020060Y1087120D03*
X3020060Y1112520D03*
X3020060Y1137920D03*
X2994660Y1112520D03*
X2994660Y1061720D03*
X2994660Y1036320D03*
X2994660Y1010920D03*
X2943860Y833120D03*
X2969260Y833120D03*
X2943860Y858520D03*
X2943860Y883920D03*
X2943860Y909320D03*
X2943860Y934720D03*
X2969260Y858520D03*
X2969260Y883920D03*
X2969260Y909320D03*
X2969260Y934720D03*
X2969260Y960120D03*
X2969260Y985520D03*
X2943860Y960120D03*
X2943860Y985520D03*
D15*
X2819400Y889000D03*
D18*
X1736725Y273050D02*
X1549400Y273050D01*
X1546860Y271780D01*
X1736725Y273050D02*
X1737360Y271780D01*
X1355725Y273050D02*
X1168400Y273050D01*
X1165860Y271780D01*
X1355725Y273050D02*
X1356360Y271780D01*
X974725Y273050D02*
X787400Y273050D01*
X784860Y271780D01*
X974725Y273050D02*
X975360Y271780D01*
X977900Y273050D02*
X1165225Y273050D01*
X1165860Y271780D01*
X977900Y273050D02*
X975360Y271780D01*
X2841625Y958850D02*
X2867025Y958850D01*
X2841625Y958850D02*
X2736850Y854075D01*
X2736850Y815975D01*
X2641600Y720725D01*
X2641600Y708025D01*
X2628900Y695325D01*
X2628900Y596900D01*
X2422525Y390525D01*
X2422525Y384175D01*
X2311400Y273050D01*
X2867025Y958850D02*
X2867660Y960120D01*
X2311400Y273050D02*
X2308860Y271780D01*
X1927225Y273050D02*
X1739900Y273050D01*
X1737360Y271780D01*
X1927225Y273050D02*
X1927860Y271780D01*
X2860675Y984250D02*
X2867025Y984250D01*
X2860675Y984250D02*
X2540000Y663575D01*
X2540000Y647700D01*
X2473325Y581025D01*
X2473325Y530225D01*
X2406650Y463550D01*
X2867025Y984250D02*
X2867660Y985520D01*
X2406650Y463550D02*
X2404110Y462280D01*
X2867025Y1000125D02*
X2867025Y1009650D01*
X2867025Y1000125D02*
X2625725Y758825D01*
X2867025Y1009650D02*
X2867660Y1010920D01*
D19*
X2625725Y758825D03*
D18*
X2660650Y733425D02*
X2660650Y717550D01*
X2660650Y733425D02*
X2765425Y838200D01*
X2660650Y717550D02*
X2659380Y716280D01*
X2701925Y1095375D02*
X2711450Y1095375D01*
X2701925Y1095375D02*
X2682875Y1076325D01*
X2682875Y971550D01*
X2619375Y908050D01*
X2711450Y1095375D02*
X2712720Y1097280D01*
X2619375Y908050D02*
X2617470Y906780D01*
D19*
X2765425Y838200D03*
D18*
X2860675Y1035050D02*
X2867025Y1035050D01*
X2860675Y1035050D02*
X2841625Y1016000D01*
X2784475Y1016000D01*
X2686050Y917575D01*
X2647950Y917575D01*
X2622550Y892175D01*
X2508250Y892175D01*
X2460625Y844550D01*
X2867025Y1035050D02*
X2867660Y1036320D01*
X2460625Y844550D02*
X2458720Y843280D01*
X314325Y146050D02*
X304800Y146050D01*
X314325Y146050D02*
X469900Y301625D01*
X469900Y333375D01*
X304800Y146050D02*
X304800Y144780D01*
X467360Y335280D02*
X469900Y333375D01*
X327025Y704850D02*
X327025Y714375D01*
X327025Y704850D02*
X333375Y698500D01*
X333375Y565150D01*
X365125Y533400D02*
X371475Y527050D01*
X365125Y533400D02*
X333375Y565150D01*
X327025Y714375D02*
X326390Y716280D01*
X371475Y527050D02*
X372110Y525780D01*
X238125Y889000D02*
X238125Y892175D01*
X238125Y904875D01*
X238125Y889000D02*
X241300Y885825D01*
X241300Y800100D01*
X323850Y717550D01*
X238125Y904875D02*
X236220Y906780D01*
X323850Y717550D02*
X326390Y716280D01*
X415925Y1095375D02*
X425450Y1095375D01*
X415925Y1095375D02*
X396875Y1076325D01*
X396875Y1041400D01*
X314325Y958850D01*
X304800Y958850D01*
X238125Y892175D01*
X425450Y1095375D02*
X426720Y1097280D01*
X365125Y533400D02*
X372110Y525780D01*
X379286Y423354D02*
X467360Y335280D01*
X379286Y519239D02*
X371475Y527050D01*
X379286Y519239D02*
X379286Y423354D01*
X3022600Y847725D02*
X3022600Y857250D01*
X3022600Y847725D02*
X3035300Y835025D01*
X3035300Y768350D01*
X2994025Y727075D01*
X2959100Y727075D01*
X2949575Y717550D01*
X2933700Y717550D01*
X2667000Y450850D01*
X3020060Y858520D02*
X3022600Y857250D01*
X546100Y187325D02*
X546100Y146050D01*
X546100Y187325D02*
X660400Y301625D01*
X660400Y333375D01*
X546100Y146050D02*
X543560Y144780D01*
X660400Y333375D02*
X657860Y335280D01*
X565150Y428625D02*
X565150Y523875D01*
X565150Y428625D02*
X657225Y336550D01*
X565150Y523875D02*
X562610Y525780D01*
X657225Y336550D02*
X657860Y335280D01*
X517525Y704850D02*
X517525Y714375D01*
X517525Y704850D02*
X523875Y698500D01*
X523875Y565150D01*
X561975Y527050D01*
X517525Y714375D02*
X516890Y716280D01*
X561975Y527050D02*
X562610Y525780D01*
X428625Y889000D02*
X428625Y904875D01*
X428625Y889000D02*
X431800Y885825D01*
X431800Y800100D01*
X514350Y717550D01*
X428625Y904875D02*
X426720Y906780D01*
X514350Y717550D02*
X516890Y716280D01*
X593725Y1095375D02*
X615950Y1095375D01*
X593725Y1095375D02*
X542925Y1044575D01*
X542925Y1022350D01*
X428625Y908050D01*
X615950Y1095375D02*
X617220Y1097280D01*
X428625Y908050D02*
X426720Y906780D01*
D19*
X2667000Y450850D03*
D18*
X708025Y704850D02*
X708025Y714375D01*
X708025Y704850D02*
X714375Y698500D01*
X714375Y565150D01*
X752475Y527050D01*
X708025Y714375D02*
X707390Y716280D01*
X752475Y527050D02*
X753110Y525780D01*
X619125Y889000D02*
X619125Y904875D01*
X619125Y889000D02*
X622300Y885825D01*
X622300Y800100D01*
X704850Y717550D01*
X619125Y904875D02*
X617220Y906780D01*
X704850Y717550D02*
X707390Y716280D01*
X784225Y1095375D02*
X806450Y1095375D01*
X784225Y1095375D02*
X733425Y1044575D01*
X733425Y1022350D01*
X619125Y908050D01*
X806450Y1095375D02*
X807720Y1097280D01*
X619125Y908050D02*
X617220Y906780D01*
X760286Y423354D02*
X848360Y335280D01*
X760286Y519239D02*
X752475Y527050D01*
X760286Y519239D02*
X760286Y423354D01*
X946150Y428625D02*
X946150Y523875D01*
X946150Y428625D02*
X1038225Y336550D01*
X946150Y523875D02*
X943610Y525780D01*
X1038225Y336550D02*
X1038860Y335280D01*
X898525Y704850D02*
X898525Y714375D01*
X898525Y704850D02*
X904875Y698500D01*
X904875Y565150D01*
X942975Y527050D01*
X898525Y714375D02*
X897890Y716280D01*
X942975Y527050D02*
X943610Y525780D01*
X974725Y1095375D02*
X996950Y1095375D01*
X974725Y1095375D02*
X923925Y1044575D01*
X923925Y1022350D01*
X812800Y911225D02*
X809625Y908050D01*
X812800Y911225D02*
X923925Y1022350D01*
X996950Y1095375D02*
X998220Y1097280D01*
X809625Y908050D02*
X807720Y906780D01*
X774700Y838200D02*
X895350Y717550D01*
X774700Y838200D02*
X812800Y876300D01*
X812800Y911225D01*
X895350Y717550D02*
X897890Y716280D01*
X807720Y906780D02*
X812800Y911225D01*
X1089025Y714375D02*
X1089025Y704850D01*
X1095375Y698500D01*
X1095375Y565150D01*
X1133475Y527050D01*
X1089025Y714375D02*
X1088390Y716280D01*
X1133475Y527050D02*
X1134110Y525780D01*
X1000125Y889000D02*
X1000125Y904875D01*
X1000125Y889000D02*
X1003300Y885825D01*
X1003300Y800100D01*
X1085850Y717550D01*
X1000125Y904875D02*
X998220Y906780D01*
X1085850Y717550D02*
X1088390Y716280D01*
X1016000Y908050D02*
X1000125Y908050D01*
X1016000Y908050D02*
X1123950Y1016000D01*
X1127125Y1016000D01*
X1136650Y1025525D01*
X1136650Y1054100D01*
X1171575Y1089025D01*
X1181100Y1089025D01*
X1187450Y1095375D01*
X1000125Y908050D02*
X998220Y906780D01*
X1187450Y1095375D02*
X1188720Y1097280D01*
X1229360Y370840D02*
X1229360Y335280D01*
X1141286Y513189D02*
X1143000Y514903D01*
X1143000Y520700D01*
X1141286Y458914D02*
X1229360Y370840D01*
X1141286Y458914D02*
X1141286Y513189D01*
X1143000Y520700D02*
X1137920Y525780D01*
X1134110Y525780D01*
X1260475Y146050D02*
X1266825Y146050D01*
X1422400Y301625D01*
X1422400Y333375D01*
X1260475Y146050D02*
X1258570Y144780D01*
X1419860Y335280D02*
X1422400Y333375D01*
X1327150Y428625D02*
X1327150Y523875D01*
X1327150Y428625D02*
X1419225Y336550D01*
X1327150Y523875D02*
X1324610Y525780D01*
X1419225Y336550D02*
X1419860Y335280D01*
X1279525Y704850D02*
X1279525Y714375D01*
X1279525Y704850D02*
X1285875Y698500D01*
X1285875Y565150D01*
X1323975Y527050D01*
X1279525Y714375D02*
X1278890Y716280D01*
X1323975Y527050D02*
X1324610Y525780D01*
X1444625Y1000125D02*
X1381125Y1063625D01*
X1384300Y1066800D01*
X1384300Y1092200D01*
X1381125Y1095375D01*
X1379220Y1097280D01*
X1206500Y908050D02*
X1190625Y908050D01*
X1206500Y908050D02*
X1247775Y949325D01*
X1266825Y949325D01*
X1295400Y977900D02*
X1381125Y1063625D01*
X1295400Y977900D02*
X1266825Y949325D01*
X1190625Y908050D02*
X1188720Y906780D01*
X1279525Y860425D02*
X1279525Y717550D01*
X1279525Y860425D02*
X1295400Y876300D01*
X1295400Y977900D01*
X1279525Y717550D02*
X1278890Y716280D01*
D19*
X1444625Y1000125D03*
D18*
X1517650Y523875D02*
X1517650Y428625D01*
X1609725Y336550D01*
X1517650Y523875D02*
X1515110Y525780D01*
X1609725Y336550D02*
X1610360Y335280D01*
X1619250Y1016000D02*
X1571625Y1063625D01*
X1574800Y1066800D01*
X1574800Y1092200D01*
X1571625Y1095375D01*
X1569720Y1097280D01*
X1397000Y908050D02*
X1381125Y908050D01*
X1397000Y908050D02*
X1438275Y949325D01*
X1457325Y949325D01*
X1485900Y977900D02*
X1571625Y1063625D01*
X1485900Y977900D02*
X1457325Y949325D01*
X1381125Y908050D02*
X1379220Y906780D01*
X1470025Y860425D02*
X1470025Y727075D01*
X1470025Y717550D01*
X1470025Y860425D02*
X1485900Y876300D01*
X1485900Y977900D01*
X1470025Y717550D02*
X1469390Y716280D01*
X1514475Y606425D02*
X1514475Y527050D01*
X1514475Y606425D02*
X1431925Y688975D01*
X1470025Y727075D01*
X1514475Y527050D02*
X1515110Y525780D01*
X1469390Y716280D02*
X1470025Y727075D01*
D19*
X1619250Y1016000D03*
D18*
X1708150Y523875D02*
X1708150Y428625D01*
X1800225Y336550D01*
X1708150Y523875D02*
X1705610Y525780D01*
X1800225Y336550D02*
X1800860Y335280D01*
X1660525Y704850D02*
X1660525Y714375D01*
X1660525Y704850D02*
X1666875Y698500D01*
X1666875Y565150D01*
X1704975Y527050D01*
X1660525Y714375D02*
X1659890Y716280D01*
X1704975Y527050D02*
X1705610Y525780D01*
X1571625Y889000D02*
X1571625Y904875D01*
X1571625Y889000D02*
X1574800Y885825D01*
X1574800Y800100D01*
X1657350Y717550D01*
X1571625Y904875D02*
X1569720Y906780D01*
X1657350Y717550D02*
X1659890Y716280D01*
X1571625Y908050D02*
X1571625Y930275D01*
X1692275Y1050925D01*
X1704975Y1050925D01*
X1743075Y1089025D01*
X1752600Y1089025D01*
X1758950Y1095375D01*
X1571625Y908050D02*
X1569720Y906780D01*
X1758950Y1095375D02*
X1760220Y1097280D01*
X1974850Y282575D02*
X1974850Y146050D01*
X1974850Y282575D02*
X1993900Y301625D01*
X1993900Y333375D01*
X1974850Y146050D02*
X1973580Y146050D01*
X1993900Y333375D02*
X1991360Y335280D01*
X1898650Y428625D02*
X1898650Y523875D01*
X1898650Y428625D02*
X1990725Y336550D01*
X1898650Y523875D02*
X1896110Y525780D01*
X1990725Y336550D02*
X1991360Y335280D01*
X1851025Y704850D02*
X1851025Y714375D01*
X1851025Y704850D02*
X1857375Y698500D01*
X1857375Y565150D01*
X1895475Y527050D01*
X1851025Y714375D02*
X1850390Y716280D01*
X1895475Y527050D02*
X1896110Y525780D01*
X1762125Y889000D02*
X1762125Y904875D01*
X1762125Y889000D02*
X1765300Y885825D01*
X1765300Y800100D01*
X1847850Y717550D01*
X1762125Y904875D02*
X1760220Y906780D01*
X1847850Y717550D02*
X1850390Y716280D01*
X2765425Y1155700D02*
X2844800Y1076325D01*
X2765425Y1155700D02*
X2009775Y1155700D01*
X1952625Y1098550D01*
X1950720Y1097280D01*
X1762125Y930275D02*
X1762125Y908050D01*
X1762125Y930275D02*
X1882775Y1050925D01*
X1895475Y1050925D01*
X1933575Y1089025D01*
X1943100Y1089025D01*
X1949450Y1095375D01*
X1762125Y908050D02*
X1760220Y906780D01*
X1949450Y1095375D02*
X1950720Y1097280D01*
D19*
X2844800Y1076325D03*
D18*
X2089150Y523875D02*
X2089150Y428625D01*
X2181225Y336550D01*
X2089150Y523875D02*
X2086610Y525780D01*
X2181225Y336550D02*
X2181860Y335280D01*
X2209800Y276225D02*
X2209800Y146050D01*
X2209800Y276225D02*
X2184400Y301625D01*
X2184400Y333375D01*
X2209800Y146050D02*
X2212340Y146050D01*
X2184400Y333375D02*
X2181860Y335280D01*
X2041525Y704850D02*
X2041525Y714375D01*
X2041525Y704850D02*
X2047875Y698500D01*
X2047875Y565150D01*
X2085975Y527050D01*
X2041525Y714375D02*
X2040890Y716280D01*
X2085975Y527050D02*
X2086610Y525780D01*
X1952625Y889000D02*
X1952625Y904875D01*
X1952625Y889000D02*
X1955800Y885825D01*
X1955800Y800100D01*
X2038350Y717550D01*
X1952625Y904875D02*
X1950720Y906780D01*
X2038350Y717550D02*
X2040890Y716280D01*
X2117725Y1095375D02*
X2139950Y1095375D01*
X2117725Y1095375D02*
X2066925Y1044575D01*
X2066925Y1022350D01*
X1952625Y908050D01*
X2139950Y1095375D02*
X2141220Y1097280D01*
X1952625Y908050D02*
X1950720Y906780D01*
X2276475Y606425D02*
X2276475Y527050D01*
X2276475Y606425D02*
X2193925Y688975D01*
X2212975Y708025D01*
X2222500Y708025D01*
X2228850Y714375D01*
X2276475Y527050D02*
X2277110Y525780D01*
X2228850Y714375D02*
X2231390Y716280D01*
X2143125Y889000D02*
X2143125Y904875D01*
X2143125Y889000D02*
X2146300Y885825D01*
X2146300Y800100D01*
X2228850Y717550D01*
X2143125Y904875D02*
X2141220Y906780D01*
X2228850Y717550D02*
X2231390Y716280D01*
X2308225Y1095375D02*
X2330450Y1095375D01*
X2308225Y1095375D02*
X2257425Y1044575D01*
X2257425Y1022350D01*
X2143125Y908050D01*
X2330450Y1095375D02*
X2331720Y1097280D01*
X2143125Y908050D02*
X2141220Y906780D01*
X2946400Y923925D02*
X2946400Y933450D01*
X2946400Y923925D02*
X2959100Y911225D01*
X2959100Y882650D01*
X2949575Y873125D01*
X2943225Y873125D01*
X2882900Y812800D01*
X2882900Y774700D01*
X2879725Y771525D01*
X2879725Y765175D01*
X2778125Y663575D01*
X2778125Y647700D01*
X2711450Y581025D01*
X2711450Y561975D01*
X2698750Y549275D01*
X2698750Y501650D01*
X2533650Y336550D01*
X2943860Y934720D02*
X2946400Y933450D01*
X2533650Y336550D02*
X2531110Y335280D01*
X2451100Y184150D02*
X2451100Y146050D01*
X2451100Y184150D02*
X2482850Y215900D01*
X2482850Y285750D01*
X2530475Y333375D01*
X2531110Y335280D01*
X2279650Y492125D02*
X2279650Y523875D01*
X2279650Y492125D02*
X2400300Y371475D01*
X2279650Y523875D02*
X2277110Y525780D01*
D19*
X2400300Y371475D03*
D18*
X2421890Y749300D02*
X2291715Y879475D01*
X2310765Y898525D01*
X2324100Y898525D01*
X2330450Y904875D01*
X2331720Y906780D01*
X2498725Y1095375D02*
X2520950Y1095375D01*
X2498725Y1095375D02*
X2447925Y1044575D01*
X2447925Y1022350D01*
X2333625Y908050D01*
X2520950Y1095375D02*
X2522220Y1097280D01*
X2333625Y908050D02*
X2331720Y906780D01*
X2933700Y908050D02*
X2943225Y908050D01*
X2933700Y908050D02*
X2873375Y847725D01*
X2867025Y847725D01*
X2857500Y838200D01*
X2857500Y822325D01*
X2730500Y695325D01*
X2730500Y673100D01*
X2584450Y527050D01*
X2943225Y908050D02*
X2943860Y909320D01*
X2584450Y527050D02*
X2581910Y525780D01*
X2422525Y704850D02*
X2422525Y714375D01*
X2422525Y704850D02*
X2428875Y698500D01*
X2428875Y603250D01*
X2422525Y714375D02*
X2421890Y716280D01*
D19*
X2428875Y603250D03*
D18*
X2421890Y716280D02*
X2421890Y749300D01*
X2841625Y1035050D02*
X2867025Y1060450D01*
X2867660Y1061720D01*
X2841625Y1035050D02*
X2839720Y1033780D01*
X1123950Y1035050D02*
X936625Y1035050D01*
X1123950Y1035050D02*
X1125220Y1033780D01*
X936625Y1035050D02*
X934720Y1033780D01*
X2460625Y1035050D02*
X2647950Y1035050D01*
X2649220Y1033780D01*
X2460625Y1035050D02*
X2458720Y1033780D01*
X155575Y333375D02*
X155575Y234950D01*
X66675Y146050D01*
X155575Y333375D02*
X157480Y335280D01*
X66675Y146050D02*
X66040Y144780D01*
X139700Y1000125D02*
X139700Y1095375D01*
X139700Y1000125D02*
X47625Y908050D01*
X139700Y1095375D02*
X140970Y1097280D01*
X47625Y908050D02*
X45720Y906780D01*
X431800Y82550D02*
X669925Y82550D01*
X670560Y81280D01*
X431800Y82550D02*
X431800Y80010D01*
X2101850Y82550D02*
X2336800Y82550D01*
X2101850Y82550D02*
X2100580Y81280D01*
X2336800Y82550D02*
X2339340Y83820D01*
X2098675Y82550D02*
X1387475Y82550D01*
X1385570Y85090D01*
X2098675Y82550D02*
X2100580Y81280D01*
X2867025Y822325D02*
X2867025Y831850D01*
X2867025Y822325D02*
X2857500Y812800D01*
X2857500Y749300D01*
X2774950Y666750D01*
X2774950Y650875D01*
X2708275Y584200D01*
X2708275Y565150D01*
X2695575Y552450D01*
X2695575Y520700D01*
X2419350Y244475D01*
X2419350Y234950D01*
X2416175Y231775D01*
X2416175Y161925D01*
X2339975Y85725D01*
X2867025Y831850D02*
X2867660Y833120D01*
X2339975Y85725D02*
X2339340Y83820D01*
X2339975Y82550D02*
X2578100Y82550D01*
X2579370Y81280D01*
X2339975Y82550D02*
X2339340Y83820D01*
X1384300Y82550D02*
X673100Y82550D01*
X670560Y81280D01*
X1384300Y82550D02*
X1385570Y85090D01*
X2990850Y733425D02*
X2990850Y736600D01*
X3013075Y758825D01*
X3013075Y800100D01*
X3006725Y806450D01*
X3006725Y987425D01*
X3016250Y996950D01*
X3022600Y996950D01*
X3032125Y1006475D01*
X3032125Y1114425D01*
X3019425Y1127125D01*
X3009900Y1127125D01*
X2997200Y1114425D01*
X2994660Y1112520D01*
D19*
X2990850Y733425D03*
D18*
X2946400Y720725D02*
X2936875Y730250D01*
X2921000Y746125D01*
X2946400Y720725D02*
X2971800Y746125D01*
X2921000Y746125D02*
X2919730Y748150D01*
X2971800Y746125D02*
X2973070Y748150D01*
X2921000Y749300D02*
X2921000Y752475D01*
X2927350Y758825D01*
X2927350Y790575D01*
X2943225Y806450D01*
X2921000Y749300D02*
X2919730Y748150D01*
X2943225Y806450D02*
X2943860Y807720D01*
X2943225Y958850D02*
X2933700Y958850D01*
X2873375Y898525D01*
X2857500Y898525D02*
X2828925Y898525D01*
X2857500Y898525D02*
X2873375Y898525D01*
X2828925Y898525D02*
X2819400Y889000D01*
X2943225Y958850D02*
X2943860Y960120D01*
X2936875Y1069975D02*
X2870200Y1136650D01*
X2936875Y1069975D02*
X2943225Y1069975D01*
X2978150Y1035050D01*
X2933700Y990600D01*
X2933700Y958850D01*
X2870200Y1136650D02*
X2867660Y1137920D01*
X2857500Y898525D02*
X2857500Y847725D01*
X2616200Y409575D02*
X2616200Y50800D01*
X2616200Y409575D02*
X2936875Y730250D01*
X295275Y1031875D02*
X266700Y1003300D01*
X266700Y990600D01*
X139700Y863600D01*
X120650Y863600D01*
X59690Y802640D01*
X52070Y787400D01*
X228600Y333375D02*
X228600Y50800D01*
X228600Y333375D02*
X12700Y549275D01*
X12700Y755650D01*
X40640Y783590D01*
X228600Y50800D02*
X229870Y49530D01*
X40640Y783590D02*
X52070Y787400D01*
D19*
X2857500Y847725D03*
X295275Y1031875D03*
D18*
X2813050Y987425D02*
X2828925Y987425D01*
X2863850Y1022350D01*
X2870200Y1022350D01*
X2924175Y968375D01*
X2867025Y911225D01*
X2867660Y909320D01*
D19*
X2813050Y987425D03*
D18*
X2908300Y765175D02*
X2917825Y765175D01*
X2919730Y765690D01*
X2908300Y765175D02*
X2905370Y764540D01*
X2974975Y765175D02*
X2984500Y765175D01*
X2974975Y765175D02*
X2973070Y765690D01*
X2984500Y765175D02*
X2987430Y765810D01*
X3003550Y768350D02*
X2974975Y796925D01*
X2965450Y796925D01*
X2955925Y806450D01*
X2955925Y822325D01*
X2946400Y831850D01*
X3003550Y768350D02*
X3004430Y765810D01*
X2946400Y831850D02*
X2943860Y833120D01*
X2889250Y787400D02*
X2889250Y765175D01*
X2889250Y787400D02*
X2905125Y803275D01*
X2905125Y819150D01*
X2943225Y857250D01*
X2889250Y765175D02*
X2888370Y764540D01*
X2943225Y857250D02*
X2943860Y858520D01*
X2921000Y825500D02*
X2921000Y809625D01*
X2921000Y825500D02*
X2940050Y844550D01*
X2971800Y844550D01*
X2981325Y854075D01*
X2981325Y949325D01*
X2971800Y958850D01*
X2921000Y809625D02*
X2918460Y807720D01*
X2971800Y958850D02*
X2969260Y960120D01*
X3019425Y1076325D02*
X3019425Y1085850D01*
X3019425Y1076325D02*
X3009900Y1066800D01*
X3009900Y1000125D01*
X2971800Y962025D01*
X3019425Y1085850D02*
X3020060Y1087120D01*
X2971800Y962025D02*
X2969260Y960120D01*
M02*
