M48
;GenerationSoftware,Autodesk,EAGLE,9.1.2*%
;CreationDate,2018-08-12T18:09:38Z*%
FMAT,2
ICI,OFF
METRIC,TZ,000.000
T11C0.350
T10C0.813
T9C0.965
T8C1.200
T7C1.500
T6C1.700
T5C1.714
T4C2.800
T3C3.050
T2C4.000
T1C4.000
%
G90
M71
T1
X236982Y107188
X103632Y107188
X122682Y107188
X141732Y107188
X160782Y107188
X179832Y107188
X198882Y107188
X217932Y107188
X256032Y107188
X248920Y12065
X272796Y12065
X275082Y107188
X36449Y69088
X55499Y69088
X74549Y69088
X93599Y69088
X112649Y69088
X131699Y69088
X150749Y69088
X169799Y69088
X188849Y69088
X207899Y69088
X226949Y69088
X245999Y69088
X269748Y69088
X41021Y50038
X60071Y50038
X79121Y50038
X98171Y50038
X117221Y50038
X136271Y50038
X155321Y50038
X174371Y50038
X193421Y50038
X212471Y50038
X231521Y50038
X50546Y30988
X69596Y30988
X88646Y30988
X107696Y30988
X126746Y30988
X145796Y30988
X164846Y30988
X183896Y30988
X202946Y30988
X221996Y30988
X12700Y69088
X14859Y50038
X27432Y88138
X46482Y88138
X65532Y88138
X84582Y88138
X103632Y88138
X122682Y88138
X141732Y88138
X160782Y88138
X179832Y88138
X198882Y88138
X217932Y88138
X236982Y88138
X8382Y88138
X10414Y11938
X34290Y11938
X58166Y11938
X201168Y12065
X225044Y12065
X46482Y107188
X65532Y107188
X84582Y107188
T2
X179667Y3698
X129667Y11938
X273901Y41798
X250101Y41798
X265557Y88138
X17907Y107188
X79667Y3698
X277457Y79898
X253657Y79898
X6007Y98948
X29807Y98948
X262001Y50038
X19558Y30988
X31458Y22748
X7658Y22748
X256921Y30988
X268821Y22748
X245021Y22748
T3
X6007Y114188
X273901Y57038
X7658Y37988
X31458Y37988
X253657Y95138
X277457Y95138
X79667Y18938
X245021Y37988
X268821Y37988
X179667Y18938
X250101Y57038
X29807Y114188
T4
X22987Y4953
X281940Y88900
X261620Y5080
X5207Y78740
X141097Y78486
T5
X226441Y50038
X236601Y50038
X13462Y88138
X5334Y11938
X15494Y11938
X29210Y11938
X39370Y11938
X53086Y11938
X63246Y11938
X196088Y12065
X206248Y12065
X193929Y69088
X219964Y12065
X230124Y12065
X41402Y107188
X51562Y107188
X60452Y107188
X79502Y107188
X89662Y107188
X98552Y107188
X31369Y69088
X41529Y69088
X108712Y107188
X117602Y107188
X50419Y69088
X60579Y69088
X127762Y107188
X136652Y107188
X69469Y69088
X79629Y69088
X146812Y107188
X155702Y107188
X88519Y69088
X98679Y69088
X165862Y107188
X45466Y30988
X107569Y69088
X117729Y69088
X55626Y30988
X174752Y107188
X126619Y69088
X136779Y69088
X184912Y107188
X64516Y30988
X145669Y69088
X155829Y69088
X74676Y30988
X193802Y107188
X164719Y69088
X174879Y69088
X203962Y107188
X83566Y30988
X183769Y69088
X93726Y30988
X212852Y107188
X223012Y107188
X202819Y69088
X212979Y69088
X102616Y30988
X112776Y30988
X221869Y69088
X232029Y69088
X231902Y107188
X242062Y107188
X240919Y69088
X251079Y69088
X121666Y30988
X131826Y30988
X264668Y69088
X274828Y69088
X250952Y107188
X261112Y107188
X140716Y30988
X150876Y30988
X243840Y12065
X254000Y12065
X159766Y30988
X169926Y30988
X267716Y12065
X70612Y107188
X178816Y30988
X188976Y30988
X270002Y107188
X280162Y107188
X197866Y30988
X208026Y30988
X277876Y12065
X216916Y30988
X227076Y30988
X212852Y88138
X7620Y69088
X17780Y69088
X9779Y50038
X19939Y50038
X22352Y88138
X32512Y88138
X41402Y88138
X51562Y88138
X35941Y50038
X46101Y50038
X60452Y88138
X70612Y88138
X54991Y50038
X65151Y50038
X79502Y88138
X89662Y88138
X74041Y50038
X84201Y50038
X98552Y88138
X108712Y88138
X93091Y50038
X103251Y50038
X117602Y88138
X127762Y88138
X112141Y50038
X122301Y50038
X136652Y88138
X146812Y88138
X131191Y50038
X141351Y50038
X155702Y88138
X165862Y88138
X150241Y50038
X160401Y50038
X174752Y88138
X184912Y88138
X169291Y50038
X179451Y50038
X193802Y88138
X203962Y88138
X188341Y50038
X198501Y50038
X223012Y88138
X231902Y88138
X207391Y50038
X217551Y50038
X242062Y88138
X3302Y88138
T6
X134747Y11938
X124587Y11938
T7
X186436Y36068
X49022Y112268
X42672Y109728
X49022Y93218
X42672Y90678
X227584Y17145
X221234Y14605
X203708Y17145
X197358Y14605
X29972Y93218
X23622Y90678
X264541Y55118
X261747Y90678
X268097Y93218
X224536Y36068
X32639Y71628
X38989Y74168
X51689Y71628
X58039Y74168
X70739Y71628
X77089Y74168
X89789Y71628
X96139Y74168
X108839Y71628
X115189Y74168
X127889Y71628
X134239Y74168
X146939Y71628
X153289Y74168
X165989Y71628
X172339Y74168
X185039Y71628
X191389Y74168
X60706Y17018
X204089Y71628
X210439Y74168
X223139Y71628
X229489Y74168
X242189Y71628
X248539Y74168
X265938Y71628
X272288Y74168
X199136Y33528
X205486Y36068
X144272Y112268
X218186Y33528
X195072Y90678
X201422Y93218
X30480Y14478
X36830Y17018
X214122Y90678
X220472Y93218
X4572Y90678
X10922Y93218
X233172Y90678
X239522Y93218
X6604Y14478
X12954Y17018
X46736Y33528
X53086Y36068
X65786Y33528
X72136Y36068
X84836Y33528
X91186Y36068
X103886Y33528
X110236Y36068
X122936Y33528
X129286Y36068
X37211Y52578
X43561Y55118
X56261Y52578
X62611Y55118
X75311Y52578
X81661Y55118
X94361Y52578
X100711Y55118
X113411Y52578
X119761Y55118
X132461Y52578
X138811Y55118
X151511Y52578
X157861Y55118
X170561Y52578
X176911Y55118
X189611Y52578
X195961Y55118
X208661Y52578
X215011Y55118
X227711Y52578
X234061Y55118
X54356Y14478
X141986Y33528
X148336Y36068
X161036Y33528
X167386Y36068
X180086Y33528
X61722Y109728
X68072Y112268
X61722Y90678
X80772Y109728
X87122Y112268
X68072Y93218
X99822Y109728
X106172Y112268
X80772Y90678
X118872Y109728
X125222Y112268
X87122Y93218
X137922Y109728
X99822Y90678
X156972Y109728
X163322Y112268
X106172Y93218
X176022Y109728
X182372Y112268
X118872Y90678
X195072Y109728
X201422Y112268
X125222Y93218
X214122Y109728
X220472Y112268
X8890Y71628
X137922Y90678
X233172Y109728
X239522Y112268
X144272Y93218
X15240Y74168
X252222Y109728
X258572Y112268
X156972Y90678
X245110Y14605
X251460Y17145
X163322Y93218
X268986Y14605
X275336Y17145
X11049Y52578
X176022Y90678
X271272Y109728
X277622Y112268
X182372Y93218
X17399Y55118
X125857Y14478
X132207Y17018
X14097Y109728
X20447Y112268
X15748Y33528
X22098Y36068
X253111Y33528
X259461Y36068
X258191Y52578
T8
X294640Y67513
X294640Y74513
X36322Y113081
X36322Y106081
T9
X286766Y101092
X286766Y113792
X286766Y111252
X286766Y108712
X286766Y106172
X286766Y103632
X286766Y98552
X286766Y96012
X286766Y93472
X286766Y90932
X286766Y88392
X286766Y85852
X286766Y83312
X286766Y80772
X289306Y80772
X291846Y80772
X294386Y80772
X296926Y80772
X299466Y80772
X302006Y80772
X302006Y83312
X302006Y85852
X302006Y88392
X302006Y90932
X302006Y93472
X302006Y96012
X302006Y98552
X302006Y101092
X302006Y103632
X302006Y106172
X302006Y108712
X302006Y111252
X302006Y113792
X299466Y111252
X299466Y106172
X299466Y103632
X299466Y101092
X294386Y83312
X296926Y83312
X294386Y85852
X294386Y88392
X294386Y90932
X294386Y93472
X296926Y85852
X296926Y88392
X296926Y90932
X296926Y93472
X296926Y96012
X296926Y98552
X294386Y96012
X294386Y98552
T10
X83439Y65278
X173736Y27178
X102489Y72898
X102489Y65278
X192786Y34798
X121539Y72898
X121539Y65278
X140589Y72898
X140589Y65278
X192786Y27178
X159639Y72898
X270764Y45974
X211836Y34798
X159639Y65278
X178689Y72898
X178689Y65278
X197739Y72898
X211836Y27178
X197739Y65278
X216789Y72898
X230886Y34798
X216789Y65278
X235839Y72898
X235839Y65278
X254889Y72898
X230886Y27178
X254889Y65278
X278892Y72898
X278892Y65278
X49911Y46228
X68961Y53848
X68961Y46228
X88011Y53848
X88011Y46228
X107061Y53848
X107061Y46228
X97536Y27178
X126111Y53848
X55372Y110998
X55372Y103378
X74422Y110998
X74422Y103378
X93472Y110998
X93472Y103378
X112522Y110998
X112522Y103378
X131572Y110998
X131572Y103378
X150622Y110998
X150622Y103378
X169672Y110998
X169672Y103378
X188722Y110998
X188722Y103378
X207772Y110998
X207772Y103378
X226822Y110998
X126111Y46228
X245872Y110998
X245872Y103378
X264922Y110998
X264922Y103378
X26797Y110998
X26797Y103378
X145161Y53848
X145161Y46228
X164211Y53848
X116586Y34798
X257937Y15748
X257937Y8128
X164211Y46228
X183261Y53848
X183261Y46228
X202311Y53848
X281813Y15875
X281813Y8255
X202311Y46228
X221361Y53848
X221361Y46228
X240411Y53848
X283972Y110998
X283972Y103378
X240411Y46228
X135636Y34798
X21463Y72898
X97536Y34798
X21463Y65278
X23749Y53467
X23749Y45847
X36322Y91948
X36322Y84328
X55372Y91948
X55372Y84328
X74422Y91948
X78486Y34798
X59436Y27178
X59436Y34798
X74422Y84328
X93472Y91948
X93472Y84328
X112522Y91948
X112522Y84328
X131572Y91948
X226822Y103378
X131572Y84328
X150622Y91948
X150622Y84328
X169672Y91948
X169672Y84328
X188722Y91948
X188722Y84328
X207772Y91948
X207772Y84328
X226822Y91948
X226822Y84328
X245872Y91948
X245872Y84328
X274574Y91948
X274574Y84328
X28321Y34417
X28321Y26797
X17272Y91948
X17272Y84328
X265811Y35052
X265811Y27432
X270764Y53594
X49911Y53848
X135636Y27178
X154686Y34798
X19431Y15621
X19431Y8001
X43180Y15621
X43180Y8001
X67056Y15748
X67056Y8128
X138557Y16129
X138557Y8509
X210058Y15748
X210058Y8128
X233934Y16002
X233934Y8382
X154686Y27178
X173736Y34798
X64389Y72898
X45339Y72898
X45339Y65278
X78486Y27178
X64389Y65278
X83439Y72898
X116586Y27178
T11
X276543Y83820
X262573Y75883
X242887Y60325
X240030Y37148
X284480Y107632
X161925Y101600
X281305Y98742
X29527Y103187
X144463Y100012
X266700Y45085
X285750Y84773
X299085Y73343
M30