G04 EAGLE Gerber X2 export*
%TF.Part,Single*%
%TF.FileFunction,Soldermask,Bot,1*%
%TF.FilePolarity,Negative*%
%TF.GenerationSoftware,Autodesk,EAGLE,9.1.2*%
%TF.CreationDate,2018-08-12T18:09:38Z*%
G75*
%MOMM*%
%FSLAX34Y34*%
%LPD*%
%AMOC8*
5,1,8,0,0,1.08239X$1,22.5*%
G01*
%ADD10C,2.743200*%
%ADD11C,2.774800*%
%ADD12C,4.203600*%
%ADD13C,1.524000*%
%ADD14C,4.203200*%
%ADD15C,1.903200*%
%ADD16C,2.453200*%
%ADD17C,3.253200*%
%ADD18R,2.703200X1.403200*%
%ADD19C,1.403200*%
%ADD20C,5.537200*%
%ADD21C,1.676400*%
%ADD22C,0.959600*%


D10*
X326390Y716280D03*
X389890Y741680D03*
D11*
X313690Y690880D03*
X415290Y690880D03*
D12*
X364490Y690880D03*
D10*
X516890Y716280D03*
X580390Y741680D03*
D11*
X504190Y690880D03*
X605790Y690880D03*
D12*
X554990Y690880D03*
D10*
X707390Y716280D03*
X770890Y741680D03*
D11*
X694690Y690880D03*
X796290Y690880D03*
D12*
X745490Y690880D03*
D10*
X897890Y716280D03*
X961390Y741680D03*
D11*
X885190Y690880D03*
X986790Y690880D03*
D12*
X935990Y690880D03*
D10*
X1088390Y716280D03*
X1151890Y741680D03*
D11*
X1075690Y690880D03*
X1177290Y690880D03*
D12*
X1126490Y690880D03*
D10*
X1278890Y716280D03*
X1342390Y741680D03*
D11*
X1266190Y690880D03*
X1367790Y690880D03*
D12*
X1316990Y690880D03*
D10*
X1469390Y716280D03*
X1532890Y741680D03*
D11*
X1456690Y690880D03*
X1558290Y690880D03*
D12*
X1507490Y690880D03*
D10*
X1659890Y716280D03*
X1723390Y741680D03*
D11*
X1647190Y690880D03*
X1748790Y690880D03*
D12*
X1697990Y690880D03*
D10*
X1850390Y716280D03*
X1913890Y741680D03*
D11*
X1837690Y690880D03*
X1939290Y690880D03*
D12*
X1888490Y690880D03*
D10*
X2040890Y716280D03*
X2104390Y741680D03*
D11*
X2028190Y690880D03*
X2129790Y690880D03*
D12*
X2078990Y690880D03*
D10*
X2231390Y716280D03*
X2294890Y741680D03*
D11*
X2218690Y690880D03*
X2320290Y690880D03*
D12*
X2269490Y690880D03*
D10*
X2421890Y716280D03*
X2485390Y741680D03*
D11*
X2409190Y690880D03*
X2510790Y690880D03*
D12*
X2459990Y690880D03*
D10*
X2659380Y716280D03*
X2722880Y741680D03*
D11*
X2646680Y690880D03*
X2748280Y690880D03*
D12*
X2697480Y690880D03*
D13*
X453390Y722376D02*
X453390Y735584D01*
X453390Y659384D02*
X453390Y646176D01*
X643890Y722376D02*
X643890Y735584D01*
X643890Y659384D02*
X643890Y646176D01*
X834390Y722376D02*
X834390Y735584D01*
X834390Y659384D02*
X834390Y646176D01*
X1024890Y722376D02*
X1024890Y735584D01*
X1024890Y659384D02*
X1024890Y646176D01*
X1215390Y722376D02*
X1215390Y735584D01*
X1215390Y659384D02*
X1215390Y646176D01*
X1405890Y722376D02*
X1405890Y735584D01*
X1405890Y659384D02*
X1405890Y646176D01*
X1596390Y722376D02*
X1596390Y735584D01*
X1596390Y659384D02*
X1596390Y646176D01*
X1786890Y722376D02*
X1786890Y735584D01*
X1786890Y659384D02*
X1786890Y646176D01*
X1977390Y722376D02*
X1977390Y735584D01*
X1977390Y659384D02*
X1977390Y646176D01*
X2167890Y722376D02*
X2167890Y735584D01*
X2167890Y659384D02*
X2167890Y646176D01*
X2358390Y722376D02*
X2358390Y735584D01*
X2358390Y659384D02*
X2358390Y646176D01*
X2548890Y722376D02*
X2548890Y735584D01*
X2548890Y659384D02*
X2548890Y646176D01*
X2788920Y722376D02*
X2788920Y735584D01*
X2788920Y659384D02*
X2788920Y646176D01*
D10*
X372110Y525780D03*
X435610Y551180D03*
D11*
X359410Y500380D03*
X461010Y500380D03*
D12*
X410210Y500380D03*
D10*
X562610Y525780D03*
X626110Y551180D03*
D11*
X549910Y500380D03*
X651510Y500380D03*
D12*
X600710Y500380D03*
D10*
X753110Y525780D03*
X816610Y551180D03*
D11*
X740410Y500380D03*
X842010Y500380D03*
D12*
X791210Y500380D03*
D10*
X943610Y525780D03*
X1007110Y551180D03*
D11*
X930910Y500380D03*
X1032510Y500380D03*
D12*
X981710Y500380D03*
D10*
X1134110Y525780D03*
X1197610Y551180D03*
D11*
X1121410Y500380D03*
X1223010Y500380D03*
D12*
X1172210Y500380D03*
D10*
X1324610Y525780D03*
X1388110Y551180D03*
D11*
X1311910Y500380D03*
X1413510Y500380D03*
D12*
X1362710Y500380D03*
D10*
X1515110Y525780D03*
X1578610Y551180D03*
D11*
X1502410Y500380D03*
X1604010Y500380D03*
D12*
X1553210Y500380D03*
D10*
X1705610Y525780D03*
X1769110Y551180D03*
D11*
X1692910Y500380D03*
X1794510Y500380D03*
D12*
X1743710Y500380D03*
D10*
X1896110Y525780D03*
X1959610Y551180D03*
D11*
X1883410Y500380D03*
X1985010Y500380D03*
D12*
X1934210Y500380D03*
D10*
X2086610Y525780D03*
X2150110Y551180D03*
D11*
X2073910Y500380D03*
X2175510Y500380D03*
D12*
X2124710Y500380D03*
D10*
X2277110Y525780D03*
X2340610Y551180D03*
D11*
X2264410Y500380D03*
X2366010Y500380D03*
D12*
X2315210Y500380D03*
D13*
X499110Y531876D02*
X499110Y545084D01*
X499110Y468884D02*
X499110Y455676D01*
X689610Y531876D02*
X689610Y545084D01*
X689610Y468884D02*
X689610Y455676D01*
X880110Y531876D02*
X880110Y545084D01*
X880110Y468884D02*
X880110Y455676D01*
X1070610Y531876D02*
X1070610Y545084D01*
X1070610Y468884D02*
X1070610Y455676D01*
X1261110Y531876D02*
X1261110Y545084D01*
X1261110Y468884D02*
X1261110Y455676D01*
X1451610Y531876D02*
X1451610Y545084D01*
X1451610Y468884D02*
X1451610Y455676D01*
X1642110Y531876D02*
X1642110Y545084D01*
X1642110Y468884D02*
X1642110Y455676D01*
X1832610Y531876D02*
X1832610Y545084D01*
X1832610Y468884D02*
X1832610Y455676D01*
X2023110Y531876D02*
X2023110Y545084D01*
X2023110Y468884D02*
X2023110Y455676D01*
X2213610Y531876D02*
X2213610Y545084D01*
X2213610Y468884D02*
X2213610Y455676D01*
X2404110Y531876D02*
X2404110Y545084D01*
X2404110Y468884D02*
X2404110Y455676D01*
D10*
X467360Y335280D03*
X530860Y360680D03*
D11*
X454660Y309880D03*
X556260Y309880D03*
D12*
X505460Y309880D03*
D10*
X657860Y335280D03*
X721360Y360680D03*
D11*
X645160Y309880D03*
X746760Y309880D03*
D12*
X695960Y309880D03*
D10*
X848360Y335280D03*
X911860Y360680D03*
D11*
X835660Y309880D03*
X937260Y309880D03*
D12*
X886460Y309880D03*
D10*
X1038860Y335280D03*
X1102360Y360680D03*
D11*
X1026160Y309880D03*
X1127760Y309880D03*
D12*
X1076960Y309880D03*
D10*
X1229360Y335280D03*
X1292860Y360680D03*
D11*
X1216660Y309880D03*
X1318260Y309880D03*
D12*
X1267460Y309880D03*
D10*
X1419860Y335280D03*
X1483360Y360680D03*
D11*
X1407160Y309880D03*
X1508760Y309880D03*
D12*
X1457960Y309880D03*
D10*
X1610360Y335280D03*
X1673860Y360680D03*
D11*
X1597660Y309880D03*
X1699260Y309880D03*
D12*
X1648460Y309880D03*
D10*
X1800860Y335280D03*
X1864360Y360680D03*
D11*
X1788160Y309880D03*
X1889760Y309880D03*
D12*
X1838960Y309880D03*
D10*
X1991360Y335280D03*
X2054860Y360680D03*
D11*
X1978660Y309880D03*
X2080260Y309880D03*
D12*
X2029460Y309880D03*
D10*
X2181860Y335280D03*
X2245360Y360680D03*
D11*
X2169160Y309880D03*
X2270760Y309880D03*
D12*
X2219960Y309880D03*
D13*
X594360Y341376D02*
X594360Y354584D01*
X594360Y278384D02*
X594360Y265176D01*
X784860Y341376D02*
X784860Y354584D01*
X784860Y278384D02*
X784860Y265176D01*
X975360Y341376D02*
X975360Y354584D01*
X975360Y278384D02*
X975360Y265176D01*
X1165860Y341376D02*
X1165860Y354584D01*
X1165860Y278384D02*
X1165860Y265176D01*
X1356360Y341376D02*
X1356360Y354584D01*
X1356360Y278384D02*
X1356360Y265176D01*
X1546860Y341376D02*
X1546860Y354584D01*
X1546860Y278384D02*
X1546860Y265176D01*
X1737360Y341376D02*
X1737360Y354584D01*
X1737360Y278384D02*
X1737360Y265176D01*
X1927860Y341376D02*
X1927860Y354584D01*
X1927860Y278384D02*
X1927860Y265176D01*
X2118360Y341376D02*
X2118360Y354584D01*
X2118360Y278384D02*
X2118360Y265176D01*
X2308860Y341376D02*
X2308860Y354584D01*
X2308860Y278384D02*
X2308860Y265176D01*
D10*
X88900Y716280D03*
X152400Y741680D03*
D11*
X76200Y690880D03*
X177800Y690880D03*
D12*
X127000Y690880D03*
D10*
X110490Y525780D03*
X173990Y551180D03*
D11*
X97790Y500380D03*
X199390Y500380D03*
D12*
X148590Y500380D03*
D13*
X214630Y722376D02*
X214630Y735584D01*
X214630Y659384D02*
X214630Y646176D01*
X237490Y541274D02*
X237490Y528066D01*
X237490Y465074D02*
X237490Y451866D01*
X283210Y350774D02*
X283210Y337566D01*
X283210Y274574D02*
X283210Y261366D01*
X2658110Y343916D02*
X2658110Y357124D01*
X2658110Y280924D02*
X2658110Y267716D01*
X2707640Y529336D02*
X2707640Y542544D01*
X2707640Y466344D02*
X2707640Y453136D01*
D10*
X236220Y906780D03*
X299720Y932180D03*
D11*
X223520Y881380D03*
X325120Y881380D03*
D12*
X274320Y881380D03*
D10*
X426720Y906780D03*
X490220Y932180D03*
D11*
X414020Y881380D03*
X515620Y881380D03*
D12*
X464820Y881380D03*
D10*
X617220Y906780D03*
X680720Y932180D03*
D11*
X604520Y881380D03*
X706120Y881380D03*
D12*
X655320Y881380D03*
D10*
X807720Y906780D03*
X871220Y932180D03*
D11*
X795020Y881380D03*
X896620Y881380D03*
D12*
X845820Y881380D03*
D10*
X998220Y906780D03*
X1061720Y932180D03*
D11*
X985520Y881380D03*
X1087120Y881380D03*
D12*
X1036320Y881380D03*
D10*
X1188720Y906780D03*
X1252220Y932180D03*
D11*
X1176020Y881380D03*
X1277620Y881380D03*
D12*
X1226820Y881380D03*
D10*
X1379220Y906780D03*
X1442720Y932180D03*
D11*
X1366520Y881380D03*
X1468120Y881380D03*
D12*
X1417320Y881380D03*
D10*
X1569720Y906780D03*
X1633220Y932180D03*
D11*
X1557020Y881380D03*
X1658620Y881380D03*
D12*
X1607820Y881380D03*
D10*
X1760220Y906780D03*
X1823720Y932180D03*
D11*
X1747520Y881380D03*
X1849120Y881380D03*
D12*
X1798320Y881380D03*
D10*
X1950720Y906780D03*
X2014220Y932180D03*
D11*
X1938020Y881380D03*
X2039620Y881380D03*
D12*
X1988820Y881380D03*
D10*
X2141220Y906780D03*
X2204720Y932180D03*
D11*
X2128520Y881380D03*
X2230120Y881380D03*
D12*
X2179320Y881380D03*
D10*
X2331720Y906780D03*
X2395220Y932180D03*
D11*
X2319020Y881380D03*
X2420620Y881380D03*
D12*
X2369820Y881380D03*
D13*
X363220Y912876D02*
X363220Y926084D01*
X363220Y849884D02*
X363220Y836676D01*
X553720Y912876D02*
X553720Y926084D01*
X553720Y849884D02*
X553720Y836676D01*
X744220Y912876D02*
X744220Y926084D01*
X744220Y849884D02*
X744220Y836676D01*
X934720Y912876D02*
X934720Y926084D01*
X934720Y849884D02*
X934720Y836676D01*
X1125220Y912876D02*
X1125220Y926084D01*
X1125220Y849884D02*
X1125220Y836676D01*
X1315720Y912876D02*
X1315720Y926084D01*
X1315720Y849884D02*
X1315720Y836676D01*
X1506220Y912876D02*
X1506220Y926084D01*
X1506220Y849884D02*
X1506220Y836676D01*
X1696720Y912876D02*
X1696720Y926084D01*
X1696720Y849884D02*
X1696720Y836676D01*
X1887220Y912876D02*
X1887220Y926084D01*
X1887220Y849884D02*
X1887220Y836676D01*
X2077720Y912876D02*
X2077720Y926084D01*
X2077720Y849884D02*
X2077720Y836676D01*
X2268220Y912876D02*
X2268220Y926084D01*
X2268220Y849884D02*
X2268220Y836676D01*
X2458720Y912876D02*
X2458720Y926084D01*
X2458720Y849884D02*
X2458720Y836676D01*
X2745740Y912876D02*
X2745740Y926084D01*
X2745740Y849884D02*
X2745740Y836676D01*
D10*
X45720Y906780D03*
X109220Y932180D03*
D11*
X33020Y881380D03*
X134620Y881380D03*
D12*
X83820Y881380D03*
D13*
X172720Y912876D02*
X172720Y926084D01*
X172720Y849884D02*
X172720Y836676D01*
D10*
X66040Y144780D03*
X129540Y170180D03*
D11*
X53340Y119380D03*
X154940Y119380D03*
D12*
X104140Y119380D03*
D10*
X304800Y144780D03*
X368300Y170180D03*
D11*
X292100Y119380D03*
X393700Y119380D03*
D12*
X342900Y119380D03*
D10*
X543560Y144780D03*
X607060Y170180D03*
D11*
X530860Y119380D03*
X632460Y119380D03*
D12*
X581660Y119380D03*
D10*
X1973580Y146050D03*
X2037080Y171450D03*
D11*
X1960880Y120650D03*
X2062480Y120650D03*
D12*
X2011680Y120650D03*
D10*
X2212340Y146050D03*
X2275840Y171450D03*
D11*
X2199640Y120650D03*
X2301240Y120650D03*
D12*
X2250440Y120650D03*
D13*
X194310Y149606D02*
X194310Y162814D01*
X194310Y86614D02*
X194310Y73406D01*
X431800Y149606D02*
X431800Y162814D01*
X431800Y86614D02*
X431800Y73406D01*
X670560Y150876D02*
X670560Y164084D01*
X670560Y87884D02*
X670560Y74676D01*
X1385570Y154686D02*
X1385570Y167894D01*
X1385570Y91694D02*
X1385570Y78486D01*
X2100580Y150876D02*
X2100580Y164084D01*
X2100580Y87884D02*
X2100580Y74676D01*
X2339340Y153416D02*
X2339340Y166624D01*
X2339340Y90424D02*
X2339340Y77216D01*
D10*
X426720Y1097280D03*
X490220Y1122680D03*
D11*
X414020Y1071880D03*
X515620Y1071880D03*
D12*
X464820Y1071880D03*
D10*
X617220Y1097280D03*
X680720Y1122680D03*
D11*
X604520Y1071880D03*
X706120Y1071880D03*
D12*
X655320Y1071880D03*
D10*
X807720Y1097280D03*
X871220Y1122680D03*
D11*
X795020Y1071880D03*
X896620Y1071880D03*
D12*
X845820Y1071880D03*
D10*
X998220Y1097280D03*
X1061720Y1122680D03*
D11*
X985520Y1071880D03*
X1087120Y1071880D03*
D12*
X1036320Y1071880D03*
D10*
X1188720Y1097280D03*
X1252220Y1122680D03*
D11*
X1176020Y1071880D03*
X1277620Y1071880D03*
D12*
X1226820Y1071880D03*
D10*
X1379220Y1097280D03*
X1442720Y1122680D03*
D11*
X1366520Y1071880D03*
X1468120Y1071880D03*
D12*
X1417320Y1071880D03*
D10*
X1569720Y1097280D03*
X1633220Y1122680D03*
D11*
X1557020Y1071880D03*
X1658620Y1071880D03*
D12*
X1607820Y1071880D03*
D10*
X1760220Y1097280D03*
X1823720Y1122680D03*
D11*
X1747520Y1071880D03*
X1849120Y1071880D03*
D12*
X1798320Y1071880D03*
D10*
X1950720Y1097280D03*
X2014220Y1122680D03*
D11*
X1938020Y1071880D03*
X2039620Y1071880D03*
D12*
X1988820Y1071880D03*
D10*
X2141220Y1097280D03*
X2204720Y1122680D03*
D11*
X2128520Y1071880D03*
X2230120Y1071880D03*
D12*
X2179320Y1071880D03*
D10*
X2331720Y1097280D03*
X2395220Y1122680D03*
D11*
X2319020Y1071880D03*
X2420620Y1071880D03*
D12*
X2369820Y1071880D03*
D10*
X2522220Y1097280D03*
X2585720Y1122680D03*
D11*
X2509520Y1071880D03*
X2611120Y1071880D03*
D12*
X2560320Y1071880D03*
D13*
X553720Y1103376D02*
X553720Y1116584D01*
X553720Y1040384D02*
X553720Y1027176D01*
X744220Y1103376D02*
X744220Y1116584D01*
X744220Y1040384D02*
X744220Y1027176D01*
X934720Y1103376D02*
X934720Y1116584D01*
X934720Y1040384D02*
X934720Y1027176D01*
X1125220Y1103376D02*
X1125220Y1116584D01*
X1125220Y1040384D02*
X1125220Y1027176D01*
X1315720Y1103376D02*
X1315720Y1116584D01*
X1315720Y1040384D02*
X1315720Y1027176D01*
X1506220Y1103376D02*
X1506220Y1116584D01*
X1506220Y1040384D02*
X1506220Y1027176D01*
X1696720Y1103376D02*
X1696720Y1116584D01*
X1696720Y1040384D02*
X1696720Y1027176D01*
X1887220Y1103376D02*
X1887220Y1116584D01*
X1887220Y1040384D02*
X1887220Y1027176D01*
X2077720Y1103376D02*
X2077720Y1116584D01*
X2077720Y1040384D02*
X2077720Y1027176D01*
X2268220Y1103376D02*
X2268220Y1116584D01*
X2268220Y1040384D02*
X2268220Y1027176D01*
X2458720Y1103376D02*
X2458720Y1116584D01*
X2458720Y1040384D02*
X2458720Y1027176D01*
X2649220Y1103376D02*
X2649220Y1116584D01*
X2649220Y1040384D02*
X2649220Y1027176D01*
X267970Y1103376D02*
X267970Y1116584D01*
X267970Y1040384D02*
X267970Y1027176D01*
D10*
X2451100Y146050D03*
X2514600Y171450D03*
D11*
X2438400Y120650D03*
X2540000Y120650D03*
D12*
X2489200Y120650D03*
D13*
X2579370Y150876D02*
X2579370Y164084D01*
X2579370Y87884D02*
X2579370Y74676D01*
D10*
X2689860Y146050D03*
X2753360Y171450D03*
D11*
X2677160Y120650D03*
X2778760Y120650D03*
D12*
X2727960Y120650D03*
D13*
X2818130Y152146D02*
X2818130Y165354D01*
X2818130Y89154D02*
X2818130Y75946D01*
D10*
X2712720Y1097280D03*
X2776220Y1122680D03*
D11*
X2700020Y1071880D03*
X2801620Y1071880D03*
D12*
X2750820Y1071880D03*
D13*
X2839720Y1103376D02*
X2839720Y1116584D01*
X2839720Y1040384D02*
X2839720Y1027176D01*
D14*
X1296670Y119380D03*
D15*
X1245870Y119380D03*
X1347470Y119380D03*
D16*
X1258570Y144780D03*
X1322070Y170180D03*
D17*
X796670Y189380D03*
X1796670Y189380D03*
D14*
X1796670Y36980D03*
X796670Y36980D03*
X179070Y1071880D03*
D16*
X140970Y1097280D03*
X204470Y1122680D03*
D17*
X60070Y1141880D03*
X298070Y1141880D03*
D14*
X298070Y989480D03*
X60070Y989480D03*
X195580Y309880D03*
D16*
X157480Y335280D03*
X220980Y360680D03*
D17*
X76580Y379880D03*
X314580Y379880D03*
D14*
X314580Y227480D03*
X76580Y227480D03*
X2569210Y309880D03*
D16*
X2531110Y335280D03*
X2594610Y360680D03*
D17*
X2450210Y379880D03*
X2688210Y379880D03*
D14*
X2688210Y227480D03*
X2450210Y227480D03*
X2620010Y500380D03*
D16*
X2581910Y525780D03*
X2645410Y551180D03*
D17*
X2501010Y570380D03*
X2739010Y570380D03*
D14*
X2739010Y417980D03*
X2501010Y417980D03*
X2655570Y881380D03*
D16*
X2617470Y906780D03*
X2680970Y932180D03*
D17*
X2536570Y951380D03*
X2774570Y951380D03*
D14*
X2774570Y798980D03*
X2536570Y798980D03*
D18*
X2978900Y761130D03*
X2913900Y772130D03*
X2978900Y721130D03*
X2978900Y691130D03*
D19*
X2946400Y675130D03*
X2946400Y745130D03*
D18*
X330720Y1044810D03*
X395720Y1033810D03*
X330720Y1084810D03*
X330720Y1114810D03*
D19*
X363220Y1130810D03*
X363220Y1060810D03*
D20*
X2616200Y50800D03*
X229870Y49530D03*
X1410970Y784860D03*
X52070Y787400D03*
D21*
X2867660Y1137920D03*
X2867660Y1112520D03*
X2867660Y1087120D03*
X2867660Y1061720D03*
X2867660Y1036320D03*
X2867660Y1010920D03*
X2867660Y985520D03*
X2867660Y960120D03*
X2867660Y934720D03*
X2867660Y909320D03*
X2867660Y883920D03*
X2867660Y858520D03*
X2867660Y833120D03*
X2867660Y807720D03*
X2893060Y807720D03*
X2918460Y807720D03*
X2943860Y807720D03*
X2969260Y807720D03*
X2994660Y807720D03*
X3020060Y807720D03*
X3020060Y833120D03*
X3020060Y858520D03*
X3020060Y883920D03*
X3020060Y909320D03*
X3020060Y934720D03*
X3020060Y960120D03*
X3020060Y985520D03*
X3020060Y1010920D03*
X3020060Y1036320D03*
X3020060Y1061720D03*
X3020060Y1087120D03*
X3020060Y1112520D03*
X3020060Y1137920D03*
X2994660Y1112520D03*
X2994660Y1061720D03*
X2994660Y1036320D03*
X2994660Y1010920D03*
X2943860Y833120D03*
X2969260Y833120D03*
X2943860Y858520D03*
X2943860Y883920D03*
X2943860Y909320D03*
X2943860Y934720D03*
X2969260Y858520D03*
X2969260Y883920D03*
X2969260Y909320D03*
X2969260Y934720D03*
X2969260Y960120D03*
X2969260Y985520D03*
X2943860Y960120D03*
X2943860Y985520D03*
D20*
X2819400Y889000D03*
D22*
X2625725Y758825D03*
X2765425Y838200D03*
X2667000Y450850D03*
X1444625Y1000125D03*
X1619250Y1016000D03*
X2844800Y1076325D03*
X2400300Y371475D03*
X2428875Y603250D03*
X2990850Y733425D03*
X2857500Y847725D03*
X295275Y1031875D03*
X2813050Y987425D03*
M02*
